<mxfile host="app.diagrams.net" modified="2021-10-05T09:48:02.688Z" agent="5.0 (Windows NT 10.0; Win64; x64) AppleWebKit/537.36 (KHTML, like Gecko) Chrome/94.0.4606.71 Safari/537.36 Edg/94.0.992.38" etag="T3gTVi6nuS2BAUTxvpfU" version="15.3.7" type="github" pages="5">
  <diagram id="xynYnfX53McqjvvW43iX" name="Page-1">
    <mxGraphModel dx="1038" dy="547" grid="1" gridSize="10" guides="1" tooltips="1" connect="1" arrows="1" fold="1" page="1" pageScale="1" pageWidth="827" pageHeight="1169" math="0" shadow="0">
      <root>
        <mxCell id="0" />
        <mxCell id="1" parent="0" />
        <mxCell id="DzUQUI1xm3Fp0Yr1hCFw-1" value="用户" style="shape=umlActor;verticalLabelPosition=bottom;verticalAlign=top;html=1;" parent="1" vertex="1">
          <mxGeometry x="90" y="100" width="20" height="40" as="geometry" />
        </mxCell>
        <mxCell id="DzUQUI1xm3Fp0Yr1hCFw-2" value="管理员" style="shape=umlActor;verticalLabelPosition=bottom;verticalAlign=top;html=1;" parent="1" vertex="1">
          <mxGeometry x="90" y="370" width="20" height="40" as="geometry" />
        </mxCell>
        <mxCell id="DzUQUI1xm3Fp0Yr1hCFw-34" value="添加商品" style="ellipse;whiteSpace=wrap;html=1;" parent="1" vertex="1">
          <mxGeometry x="414" y="80" width="96" height="30" as="geometry" />
        </mxCell>
        <mxCell id="DzUQUI1xm3Fp0Yr1hCFw-37" value="查询商品" style="ellipse;whiteSpace=wrap;html=1;" parent="1" vertex="1">
          <mxGeometry x="414" y="110" width="96" height="30" as="geometry" />
        </mxCell>
        <mxCell id="DzUQUI1xm3Fp0Yr1hCFw-38" value="修改商品" style="ellipse;whiteSpace=wrap;html=1;" parent="1" vertex="1">
          <mxGeometry x="414" y="140" width="96" height="30" as="geometry" />
        </mxCell>
        <mxCell id="DzUQUI1xm3Fp0Yr1hCFw-44" value="删除商品" style="ellipse;whiteSpace=wrap;html=1;" parent="1" vertex="1">
          <mxGeometry x="414" y="170" width="96" height="30" as="geometry" />
        </mxCell>
        <mxCell id="DzUQUI1xm3Fp0Yr1hCFw-47" value="添加商品至收藏夹" style="ellipse;whiteSpace=wrap;html=1;" parent="1" vertex="1">
          <mxGeometry x="410" y="320" width="100" height="30" as="geometry" />
        </mxCell>
        <mxCell id="DzUQUI1xm3Fp0Yr1hCFw-48" value="添加商品分类" style="ellipse;whiteSpace=wrap;html=1;" parent="1" vertex="1">
          <mxGeometry x="414" y="200" width="96" height="30" as="geometry" />
        </mxCell>
        <mxCell id="DzUQUI1xm3Fp0Yr1hCFw-49" value="查询商品分类" style="ellipse;whiteSpace=wrap;html=1;" parent="1" vertex="1">
          <mxGeometry x="414" y="230" width="96" height="30" as="geometry" />
        </mxCell>
        <mxCell id="DzUQUI1xm3Fp0Yr1hCFw-50" value="修改商品分类" style="ellipse;whiteSpace=wrap;html=1;" parent="1" vertex="1">
          <mxGeometry x="410" y="260" width="100" height="30" as="geometry" />
        </mxCell>
        <mxCell id="DzUQUI1xm3Fp0Yr1hCFw-51" value="删除商品分类" style="ellipse;whiteSpace=wrap;html=1;" parent="1" vertex="1">
          <mxGeometry x="410" y="290" width="100" height="30" as="geometry" />
        </mxCell>
        <mxCell id="DzUQUI1xm3Fp0Yr1hCFw-52" value="收藏夹商品加购" style="ellipse;whiteSpace=wrap;html=1;" parent="1" vertex="1">
          <mxGeometry x="410" y="410" width="100" height="30" as="geometry" />
        </mxCell>
        <mxCell id="DzUQUI1xm3Fp0Yr1hCFw-53" value="删除收藏夹商品" style="ellipse;whiteSpace=wrap;html=1;" parent="1" vertex="1">
          <mxGeometry x="410" y="350" width="100" height="30" as="geometry" />
        </mxCell>
        <mxCell id="DzUQUI1xm3Fp0Yr1hCFw-54" value="查询收藏夹商品" style="ellipse;whiteSpace=wrap;html=1;" parent="1" vertex="1">
          <mxGeometry x="410" y="380" width="100" height="30" as="geometry" />
        </mxCell>
        <mxCell id="DzUQUI1xm3Fp0Yr1hCFw-55" value="添加商品至购物车" style="ellipse;whiteSpace=wrap;html=1;" parent="1" vertex="1">
          <mxGeometry x="410" y="440" width="100" height="30" as="geometry" />
        </mxCell>
        <mxCell id="DzUQUI1xm3Fp0Yr1hCFw-56" value="删除购物车商品" style="ellipse;whiteSpace=wrap;html=1;" parent="1" vertex="1">
          <mxGeometry x="410" y="470" width="100" height="30" as="geometry" />
        </mxCell>
        <mxCell id="DzUQUI1xm3Fp0Yr1hCFw-57" value="修改加购商品信息" style="ellipse;whiteSpace=wrap;html=1;" parent="1" vertex="1">
          <mxGeometry x="410" y="500" width="100" height="30" as="geometry" />
        </mxCell>
        <mxCell id="DzUQUI1xm3Fp0Yr1hCFw-58" value="结算购物车中商品" style="ellipse;whiteSpace=wrap;html=1;" parent="1" vertex="1">
          <mxGeometry x="410" y="530" width="100" height="30" as="geometry" />
        </mxCell>
        <mxCell id="DzUQUI1xm3Fp0Yr1hCFw-59" value="新增订单" style="ellipse;whiteSpace=wrap;html=1;" parent="1" vertex="1">
          <mxGeometry x="410" y="560" width="100" height="30" as="geometry" />
        </mxCell>
        <mxCell id="DzUQUI1xm3Fp0Yr1hCFw-60" value="查询订单" style="ellipse;whiteSpace=wrap;html=1;" parent="1" vertex="1">
          <mxGeometry x="412" y="590" width="100" height="30" as="geometry" />
        </mxCell>
        <mxCell id="DzUQUI1xm3Fp0Yr1hCFw-61" value="修改订单" style="ellipse;whiteSpace=wrap;html=1;" parent="1" vertex="1">
          <mxGeometry x="414" y="620" width="100" height="30" as="geometry" />
        </mxCell>
        <mxCell id="DzUQUI1xm3Fp0Yr1hCFw-62" value="删除订单" style="ellipse;whiteSpace=wrap;html=1;" parent="1" vertex="1">
          <mxGeometry x="414" y="650" width="100" height="30" as="geometry" />
        </mxCell>
        <mxCell id="DzUQUI1xm3Fp0Yr1hCFw-63" value="订单支付" style="ellipse;whiteSpace=wrap;html=1;" parent="1" vertex="1">
          <mxGeometry x="414" y="680" width="100" height="30" as="geometry" />
        </mxCell>
        <mxCell id="DzUQUI1xm3Fp0Yr1hCFw-64" value="订单发货" style="ellipse;whiteSpace=wrap;html=1;" parent="1" vertex="1">
          <mxGeometry x="414" y="710" width="100" height="30" as="geometry" />
        </mxCell>
        <mxCell id="DzUQUI1xm3Fp0Yr1hCFw-65" value="订单收货" style="ellipse;whiteSpace=wrap;html=1;" parent="1" vertex="1">
          <mxGeometry x="414" y="740" width="100" height="30" as="geometry" />
        </mxCell>
        <mxCell id="DzUQUI1xm3Fp0Yr1hCFw-66" value="添加收货地址" style="ellipse;whiteSpace=wrap;html=1;" parent="1" vertex="1">
          <mxGeometry x="412" y="800" width="100" height="30" as="geometry" />
        </mxCell>
        <mxCell id="DzUQUI1xm3Fp0Yr1hCFw-67" value="修改收货地址" style="ellipse;whiteSpace=wrap;html=1;" parent="1" vertex="1">
          <mxGeometry x="412" y="830" width="100" height="30" as="geometry" />
        </mxCell>
        <mxCell id="DzUQUI1xm3Fp0Yr1hCFw-68" value="删除收货地址" style="ellipse;whiteSpace=wrap;html=1;" parent="1" vertex="1">
          <mxGeometry x="412" y="860" width="100" height="30" as="geometry" />
        </mxCell>
        <mxCell id="DzUQUI1xm3Fp0Yr1hCFw-69" value="热销排行榜" style="ellipse;whiteSpace=wrap;html=1;" parent="1" vertex="1">
          <mxGeometry x="414" y="910" width="100" height="30" as="geometry" />
        </mxCell>
        <mxCell id="DzUQUI1xm3Fp0Yr1hCFw-70" value="猜你喜欢" style="ellipse;whiteSpace=wrap;html=1;" parent="1" vertex="1">
          <mxGeometry x="414" y="940" width="100" height="30" as="geometry" />
        </mxCell>
        <mxCell id="DzUQUI1xm3Fp0Yr1hCFw-71" value="统计总订单量" style="ellipse;whiteSpace=wrap;html=1;" parent="1" vertex="1">
          <mxGeometry x="414" y="970" width="100" height="30" as="geometry" />
        </mxCell>
        <mxCell id="DzUQUI1xm3Fp0Yr1hCFw-72" value="统计待发货订单量" style="ellipse;whiteSpace=wrap;html=1;" parent="1" vertex="1">
          <mxGeometry x="414" y="1000" width="100" height="30" as="geometry" />
        </mxCell>
        <mxCell id="DzUQUI1xm3Fp0Yr1hCFw-73" value="评价订单" style="ellipse;whiteSpace=wrap;html=1;" parent="1" vertex="1">
          <mxGeometry x="414" y="770" width="100" height="30" as="geometry" />
        </mxCell>
        <mxCell id="DzUQUI1xm3Fp0Yr1hCFw-74" value="商品销量排行" style="ellipse;whiteSpace=wrap;html=1;" parent="1" vertex="1">
          <mxGeometry x="414" y="1030" width="100" height="30" as="geometry" />
        </mxCell>
        <mxCell id="DzUQUI1xm3Fp0Yr1hCFw-75" value="收藏夹管理" style="ellipse;whiteSpace=wrap;html=1;" parent="1" vertex="1">
          <mxGeometry x="540" y="350" width="100" height="30" as="geometry" />
        </mxCell>
        <mxCell id="DzUQUI1xm3Fp0Yr1hCFw-76" value="商品分类管理" style="ellipse;whiteSpace=wrap;html=1;" parent="1" vertex="1">
          <mxGeometry x="540" y="230" width="100" height="30" as="geometry" />
        </mxCell>
        <mxCell id="DzUQUI1xm3Fp0Yr1hCFw-77" value="商品管理" style="ellipse;whiteSpace=wrap;html=1;" parent="1" vertex="1">
          <mxGeometry x="540" y="105" width="100" height="30" as="geometry" />
        </mxCell>
        <mxCell id="DzUQUI1xm3Fp0Yr1hCFw-78" value="购物车管理" style="ellipse;whiteSpace=wrap;html=1;" parent="1" vertex="1">
          <mxGeometry x="540" y="470" width="100" height="30" as="geometry" />
        </mxCell>
        <mxCell id="DzUQUI1xm3Fp0Yr1hCFw-79" value="订单管理" style="ellipse;whiteSpace=wrap;html=1;" parent="1" vertex="1">
          <mxGeometry x="540" y="600" width="100" height="30" as="geometry" />
        </mxCell>
        <mxCell id="DzUQUI1xm3Fp0Yr1hCFw-80" value="收货地址管理" style="ellipse;whiteSpace=wrap;html=1;" parent="1" vertex="1">
          <mxGeometry x="540" y="820" width="100" height="30" as="geometry" />
        </mxCell>
        <mxCell id="DzUQUI1xm3Fp0Yr1hCFw-81" value="前台首页" style="ellipse;whiteSpace=wrap;html=1;" parent="1" vertex="1">
          <mxGeometry x="540" y="920" width="100" height="30" as="geometry" />
        </mxCell>
        <mxCell id="DzUQUI1xm3Fp0Yr1hCFw-82" value="后台首页" style="ellipse;whiteSpace=wrap;html=1;" parent="1" vertex="1">
          <mxGeometry x="540" y="1010" width="100" height="30" as="geometry" />
        </mxCell>
        <mxCell id="DzUQUI1xm3Fp0Yr1hCFw-83" value="评价管理" style="ellipse;whiteSpace=wrap;html=1;" parent="1" vertex="1">
          <mxGeometry x="90" y="890" width="100" height="30" as="geometry" />
        </mxCell>
        <mxCell id="DzUQUI1xm3Fp0Yr1hCFw-85" value="删除评价" style="ellipse;whiteSpace=wrap;html=1;" parent="1" vertex="1">
          <mxGeometry x="220" y="920" width="100" height="30" as="geometry" />
        </mxCell>
        <mxCell id="DzUQUI1xm3Fp0Yr1hCFw-86" value="添加图片" style="ellipse;whiteSpace=wrap;html=1;" parent="1" vertex="1">
          <mxGeometry x="220" y="890" width="100" height="30" as="geometry" />
        </mxCell>
        <mxCell id="DzUQUI1xm3Fp0Yr1hCFw-87" value="添加评论" style="ellipse;whiteSpace=wrap;html=1;" parent="1" vertex="1">
          <mxGeometry x="220" y="860" width="100" height="30" as="geometry" />
        </mxCell>
        <mxCell id="DKzh-qmK_cupWP9TL_qD-1" value="评价管理" style="ellipse;whiteSpace=wrap;html=1;" parent="1" vertex="1">
          <mxGeometry x="540" y="1070" width="100" height="30" as="geometry" />
        </mxCell>
      </root>
    </mxGraphModel>
  </diagram>
  <diagram id="d952RCIJp8kR5QghxbZp" name="Page-2">
    <mxGraphModel dx="1483" dy="781" grid="1" gridSize="10" guides="1" tooltips="1" connect="1" arrows="1" fold="1" page="1" pageScale="1" pageWidth="827" pageHeight="1169" math="0" shadow="0">
      <root>
        <mxCell id="V83xSxX5qMVFYjiRU3iE-0" />
        <mxCell id="V83xSxX5qMVFYjiRU3iE-1" parent="V83xSxX5qMVFYjiRU3iE-0" />
        <mxCell id="V83xSxX5qMVFYjiRU3iE-2" value="用户" style="shape=umlActor;verticalLabelPosition=bottom;verticalAlign=top;html=1;" parent="V83xSxX5qMVFYjiRU3iE-1" vertex="1">
          <mxGeometry x="700" y="330" width="20" height="40" as="geometry" />
        </mxCell>
        <mxCell id="V83xSxX5qMVFYjiRU3iE-3" value="管理员" style="shape=umlActor;verticalLabelPosition=bottom;verticalAlign=top;html=1;" parent="V83xSxX5qMVFYjiRU3iE-1" vertex="1">
          <mxGeometry x="700" y="440" width="20" height="40" as="geometry" />
        </mxCell>
        <mxCell id="V83xSxX5qMVFYjiRU3iE-4" value="用户管理" style="ellipse;whiteSpace=wrap;html=1;" parent="V83xSxX5qMVFYjiRU3iE-1" vertex="1">
          <mxGeometry x="364" y="90" width="100" height="30" as="geometry" />
        </mxCell>
        <mxCell id="V83xSxX5qMVFYjiRU3iE-5" value="猜你喜欢" style="ellipse;whiteSpace=wrap;html=1;" parent="V83xSxX5qMVFYjiRU3iE-1" vertex="1">
          <mxGeometry x="364" y="140" width="100" height="30" as="geometry" />
        </mxCell>
        <mxCell id="V83xSxX5qMVFYjiRU3iE-6" value="公告管理" style="ellipse;whiteSpace=wrap;html=1;" parent="V83xSxX5qMVFYjiRU3iE-1" vertex="1">
          <mxGeometry x="364" y="190" width="100" height="30" as="geometry" />
        </mxCell>
        <mxCell id="V83xSxX5qMVFYjiRU3iE-7" value="轮播图管理" style="ellipse;whiteSpace=wrap;html=1;" parent="V83xSxX5qMVFYjiRU3iE-1" vertex="1">
          <mxGeometry x="364" y="240" width="100" height="30" as="geometry" />
        </mxCell>
        <mxCell id="TYLZvaVYCWwQe3Wg7_Nj-0" value="收藏夹管理" style="ellipse;whiteSpace=wrap;html=1;" parent="V83xSxX5qMVFYjiRU3iE-1" vertex="1">
          <mxGeometry x="364" y="390" width="100" height="30" as="geometry" />
        </mxCell>
        <mxCell id="TYLZvaVYCWwQe3Wg7_Nj-1" value="商品分类管理" style="ellipse;whiteSpace=wrap;html=1;" parent="V83xSxX5qMVFYjiRU3iE-1" vertex="1">
          <mxGeometry x="364" y="340" width="100" height="30" as="geometry" />
        </mxCell>
        <mxCell id="TYLZvaVYCWwQe3Wg7_Nj-2" value="商品管理" style="ellipse;whiteSpace=wrap;html=1;" parent="V83xSxX5qMVFYjiRU3iE-1" vertex="1">
          <mxGeometry x="364" y="290" width="100" height="30" as="geometry" />
        </mxCell>
        <mxCell id="TYLZvaVYCWwQe3Wg7_Nj-3" value="购物车管理" style="ellipse;whiteSpace=wrap;html=1;" parent="V83xSxX5qMVFYjiRU3iE-1" vertex="1">
          <mxGeometry x="364" y="440" width="100" height="30" as="geometry" />
        </mxCell>
        <mxCell id="TYLZvaVYCWwQe3Wg7_Nj-4" value="订单管理" style="ellipse;whiteSpace=wrap;html=1;" parent="V83xSxX5qMVFYjiRU3iE-1" vertex="1">
          <mxGeometry x="364" y="490" width="100" height="30" as="geometry" />
        </mxCell>
        <mxCell id="TYLZvaVYCWwQe3Wg7_Nj-5" value="收货地址管理" style="ellipse;whiteSpace=wrap;html=1;" parent="V83xSxX5qMVFYjiRU3iE-1" vertex="1">
          <mxGeometry x="364" y="540" width="100" height="30" as="geometry" />
        </mxCell>
        <mxCell id="TYLZvaVYCWwQe3Wg7_Nj-6" value="前台首页" style="ellipse;whiteSpace=wrap;html=1;" parent="V83xSxX5qMVFYjiRU3iE-1" vertex="1">
          <mxGeometry x="364" y="690" width="100" height="30" as="geometry" />
        </mxCell>
        <mxCell id="TYLZvaVYCWwQe3Wg7_Nj-7" value="后台首页" style="ellipse;whiteSpace=wrap;html=1;" parent="V83xSxX5qMVFYjiRU3iE-1" vertex="1">
          <mxGeometry x="364" y="640" width="100" height="30" as="geometry" />
        </mxCell>
        <mxCell id="TYLZvaVYCWwQe3Wg7_Nj-8" value="评价管理" style="ellipse;whiteSpace=wrap;html=1;" parent="V83xSxX5qMVFYjiRU3iE-1" vertex="1">
          <mxGeometry x="364" y="590" width="100" height="30" as="geometry" />
        </mxCell>
        <mxCell id="TYLZvaVYCWwQe3Wg7_Nj-10" value="商城系统" style="ellipse;whiteSpace=wrap;html=1;" parent="V83xSxX5qMVFYjiRU3iE-1" vertex="1">
          <mxGeometry x="70" y="390" width="100" height="30" as="geometry" />
        </mxCell>
        <mxCell id="TYLZvaVYCWwQe3Wg7_Nj-11" value="《包含》" style="endArrow=open;endSize=12;dashed=1;html=1;entryX=0;entryY=0.5;entryDx=0;entryDy=0;" parent="V83xSxX5qMVFYjiRU3iE-1" target="TYLZvaVYCWwQe3Wg7_Nj-0" edge="1">
          <mxGeometry width="160" relative="1" as="geometry">
            <mxPoint x="170" y="404.58" as="sourcePoint" />
            <mxPoint x="330" y="404.58" as="targetPoint" />
          </mxGeometry>
        </mxCell>
        <mxCell id="TYLZvaVYCWwQe3Wg7_Nj-12" value="《包含》" style="endArrow=open;endSize=12;dashed=1;html=1;entryX=0;entryY=0.5;entryDx=0;entryDy=0;exitX=1;exitY=0.5;exitDx=0;exitDy=0;" parent="V83xSxX5qMVFYjiRU3iE-1" source="TYLZvaVYCWwQe3Wg7_Nj-10" target="TYLZvaVYCWwQe3Wg7_Nj-3" edge="1">
          <mxGeometry width="160" relative="1" as="geometry">
            <mxPoint x="180" y="414.5799999999999" as="sourcePoint" />
            <mxPoint x="374" y="415" as="targetPoint" />
          </mxGeometry>
        </mxCell>
        <mxCell id="TYLZvaVYCWwQe3Wg7_Nj-13" value="《包含》" style="endArrow=open;endSize=12;dashed=1;html=1;entryX=0;entryY=0.5;entryDx=0;entryDy=0;exitX=1;exitY=0.5;exitDx=0;exitDy=0;" parent="V83xSxX5qMVFYjiRU3iE-1" source="TYLZvaVYCWwQe3Wg7_Nj-10" target="TYLZvaVYCWwQe3Wg7_Nj-1" edge="1">
          <mxGeometry width="160" relative="1" as="geometry">
            <mxPoint x="170" y="300" as="sourcePoint" />
            <mxPoint x="364" y="350" as="targetPoint" />
          </mxGeometry>
        </mxCell>
        <mxCell id="TYLZvaVYCWwQe3Wg7_Nj-14" value="《包含》" style="endArrow=open;endSize=12;dashed=1;html=1;entryX=0;entryY=0.5;entryDx=0;entryDy=0;exitX=1;exitY=0.5;exitDx=0;exitDy=0;" parent="V83xSxX5qMVFYjiRU3iE-1" source="TYLZvaVYCWwQe3Wg7_Nj-10" target="TYLZvaVYCWwQe3Wg7_Nj-2" edge="1">
          <mxGeometry width="160" relative="1" as="geometry">
            <mxPoint x="190" y="425" as="sourcePoint" />
            <mxPoint x="384" y="475" as="targetPoint" />
          </mxGeometry>
        </mxCell>
        <mxCell id="TYLZvaVYCWwQe3Wg7_Nj-15" value="《包含》" style="endArrow=open;endSize=12;dashed=1;html=1;entryX=0;entryY=0.5;entryDx=0;entryDy=0;exitX=1;exitY=0.5;exitDx=0;exitDy=0;" parent="V83xSxX5qMVFYjiRU3iE-1" source="TYLZvaVYCWwQe3Wg7_Nj-10" target="TYLZvaVYCWwQe3Wg7_Nj-5" edge="1">
          <mxGeometry width="160" relative="1" as="geometry">
            <mxPoint x="200" y="435" as="sourcePoint" />
            <mxPoint x="394" y="485" as="targetPoint" />
          </mxGeometry>
        </mxCell>
        <mxCell id="TYLZvaVYCWwQe3Wg7_Nj-16" value="《包含》" style="endArrow=open;endSize=12;dashed=1;html=1;entryX=0;entryY=0.5;entryDx=0;entryDy=0;exitX=1;exitY=0.5;exitDx=0;exitDy=0;" parent="V83xSxX5qMVFYjiRU3iE-1" source="TYLZvaVYCWwQe3Wg7_Nj-10" target="TYLZvaVYCWwQe3Wg7_Nj-8" edge="1">
          <mxGeometry width="160" relative="1" as="geometry">
            <mxPoint x="210" y="445" as="sourcePoint" />
            <mxPoint x="404" y="495" as="targetPoint" />
          </mxGeometry>
        </mxCell>
        <mxCell id="TYLZvaVYCWwQe3Wg7_Nj-17" value="《包含》" style="endArrow=open;endSize=12;dashed=1;html=1;entryX=0;entryY=0.5;entryDx=0;entryDy=0;exitX=1;exitY=0.5;exitDx=0;exitDy=0;" parent="V83xSxX5qMVFYjiRU3iE-1" source="TYLZvaVYCWwQe3Wg7_Nj-10" target="V83xSxX5qMVFYjiRU3iE-7" edge="1">
          <mxGeometry width="160" relative="1" as="geometry">
            <mxPoint x="220" y="455" as="sourcePoint" />
            <mxPoint x="414" y="505" as="targetPoint" />
          </mxGeometry>
        </mxCell>
        <mxCell id="TYLZvaVYCWwQe3Wg7_Nj-18" value="《包含》" style="endArrow=open;endSize=12;dashed=1;html=1;entryX=0;entryY=0.5;entryDx=0;entryDy=0;exitX=1.003;exitY=0.591;exitDx=0;exitDy=0;exitPerimeter=0;" parent="V83xSxX5qMVFYjiRU3iE-1" source="TYLZvaVYCWwQe3Wg7_Nj-10" target="V83xSxX5qMVFYjiRU3iE-4" edge="1">
          <mxGeometry width="160" relative="1" as="geometry">
            <mxPoint x="180" y="435" as="sourcePoint" />
            <mxPoint x="374" y="485" as="targetPoint" />
          </mxGeometry>
        </mxCell>
        <mxCell id="TYLZvaVYCWwQe3Wg7_Nj-19" value="《包含》" style="endArrow=open;endSize=12;dashed=1;html=1;entryX=0;entryY=0.5;entryDx=0;entryDy=0;exitX=1.005;exitY=0.591;exitDx=0;exitDy=0;exitPerimeter=0;" parent="V83xSxX5qMVFYjiRU3iE-1" source="TYLZvaVYCWwQe3Wg7_Nj-10" target="V83xSxX5qMVFYjiRU3iE-5" edge="1">
          <mxGeometry width="160" relative="1" as="geometry">
            <mxPoint x="240" y="475" as="sourcePoint" />
            <mxPoint x="434" y="525" as="targetPoint" />
          </mxGeometry>
        </mxCell>
        <mxCell id="TYLZvaVYCWwQe3Wg7_Nj-20" value="《包含》" style="endArrow=open;endSize=12;dashed=1;html=1;entryX=0;entryY=0.5;entryDx=0;entryDy=0;exitX=1;exitY=0.5;exitDx=0;exitDy=0;" parent="V83xSxX5qMVFYjiRU3iE-1" source="TYLZvaVYCWwQe3Wg7_Nj-10" target="V83xSxX5qMVFYjiRU3iE-6" edge="1">
          <mxGeometry width="160" relative="1" as="geometry">
            <mxPoint x="250" y="485" as="sourcePoint" />
            <mxPoint x="444" y="535" as="targetPoint" />
          </mxGeometry>
        </mxCell>
        <mxCell id="TYLZvaVYCWwQe3Wg7_Nj-21" value="《包含》" style="endArrow=open;endSize=12;dashed=1;html=1;entryX=0;entryY=0.5;entryDx=0;entryDy=0;exitX=1;exitY=0.5;exitDx=0;exitDy=0;" parent="V83xSxX5qMVFYjiRU3iE-1" source="TYLZvaVYCWwQe3Wg7_Nj-10" target="TYLZvaVYCWwQe3Wg7_Nj-4" edge="1">
          <mxGeometry width="160" relative="1" as="geometry">
            <mxPoint x="260" y="495" as="sourcePoint" />
            <mxPoint x="454" y="545" as="targetPoint" />
          </mxGeometry>
        </mxCell>
        <mxCell id="TYLZvaVYCWwQe3Wg7_Nj-22" value="《包含》" style="endArrow=open;endSize=12;dashed=1;html=1;entryX=0;entryY=0.5;entryDx=0;entryDy=0;" parent="V83xSxX5qMVFYjiRU3iE-1" target="TYLZvaVYCWwQe3Wg7_Nj-7" edge="1">
          <mxGeometry width="160" relative="1" as="geometry">
            <mxPoint x="170" y="405" as="sourcePoint" />
            <mxPoint x="464" y="555" as="targetPoint" />
          </mxGeometry>
        </mxCell>
        <mxCell id="TYLZvaVYCWwQe3Wg7_Nj-23" value="《包含》" style="endArrow=open;endSize=12;dashed=1;html=1;entryX=0.036;entryY=0.807;entryDx=0;entryDy=0;entryPerimeter=0;exitX=1;exitY=0.5;exitDx=0;exitDy=0;" parent="V83xSxX5qMVFYjiRU3iE-1" source="TYLZvaVYCWwQe3Wg7_Nj-10" target="TYLZvaVYCWwQe3Wg7_Nj-6" edge="1">
          <mxGeometry width="160" relative="1" as="geometry">
            <mxPoint x="180" y="415" as="sourcePoint" />
            <mxPoint x="374" y="665" as="targetPoint" />
          </mxGeometry>
        </mxCell>
      </root>
    </mxGraphModel>
  </diagram>
  <diagram id="vYV5MQnyUK1PzUKChAAe" name="Page-4">
    <mxGraphModel dx="2076" dy="1094" grid="1" gridSize="10" guides="1" tooltips="1" connect="1" arrows="1" fold="1" page="1" pageScale="1" pageWidth="827" pageHeight="1169" math="0" shadow="0">
      <root>
        <mxCell id="0ckDdjpmDs_dE9RsHQcH-0" />
        <mxCell id="0ckDdjpmDs_dE9RsHQcH-1" parent="0ckDdjpmDs_dE9RsHQcH-0" />
        <mxCell id="0ckDdjpmDs_dE9RsHQcH-2" value="商品猜你喜欢" style="ellipse;whiteSpace=wrap;html=1;" parent="0ckDdjpmDs_dE9RsHQcH-1" vertex="1">
          <mxGeometry x="453" y="290" width="100" height="30" as="geometry" />
        </mxCell>
        <mxCell id="0ckDdjpmDs_dE9RsHQcH-3" value="注册" style="ellipse;whiteSpace=wrap;html=1;" parent="0ckDdjpmDs_dE9RsHQcH-1" vertex="1">
          <mxGeometry x="453" y="90" width="100" height="30" as="geometry" />
        </mxCell>
        <mxCell id="0ckDdjpmDs_dE9RsHQcH-4" value="用户查询" style="ellipse;whiteSpace=wrap;html=1;" parent="0ckDdjpmDs_dE9RsHQcH-1" vertex="1">
          <mxGeometry x="453" y="210" width="100" height="30" as="geometry" />
        </mxCell>
        <mxCell id="0ckDdjpmDs_dE9RsHQcH-5" value="用户修改" style="ellipse;whiteSpace=wrap;html=1;" parent="0ckDdjpmDs_dE9RsHQcH-1" vertex="1">
          <mxGeometry x="453" y="170" width="100" height="30" as="geometry" />
        </mxCell>
        <mxCell id="0ckDdjpmDs_dE9RsHQcH-6" value="登陆" style="ellipse;whiteSpace=wrap;html=1;" parent="0ckDdjpmDs_dE9RsHQcH-1" vertex="1">
          <mxGeometry x="453" y="130" width="100" height="30" as="geometry" />
        </mxCell>
        <mxCell id="0ckDdjpmDs_dE9RsHQcH-7" value="查看公告" style="ellipse;whiteSpace=wrap;html=1;" parent="0ckDdjpmDs_dE9RsHQcH-1" vertex="1">
          <mxGeometry x="453" y="370" width="100" height="30" as="geometry" />
        </mxCell>
        <mxCell id="0ckDdjpmDs_dE9RsHQcH-8" value="添加公告" style="ellipse;whiteSpace=wrap;html=1;" parent="0ckDdjpmDs_dE9RsHQcH-1" vertex="1">
          <mxGeometry x="453" y="410" width="100" height="30" as="geometry" />
        </mxCell>
        <mxCell id="0ckDdjpmDs_dE9RsHQcH-9" value="修改公告" style="ellipse;whiteSpace=wrap;html=1;" parent="0ckDdjpmDs_dE9RsHQcH-1" vertex="1">
          <mxGeometry x="453" y="450" width="100" height="30" as="geometry" />
        </mxCell>
        <mxCell id="0ckDdjpmDs_dE9RsHQcH-10" value="文章猜你喜欢" style="ellipse;whiteSpace=wrap;html=1;" parent="0ckDdjpmDs_dE9RsHQcH-1" vertex="1">
          <mxGeometry x="453" y="330" width="100" height="30" as="geometry" />
        </mxCell>
        <mxCell id="0ckDdjpmDs_dE9RsHQcH-11" value="删除公告" style="ellipse;whiteSpace=wrap;html=1;" parent="0ckDdjpmDs_dE9RsHQcH-1" vertex="1">
          <mxGeometry x="453" y="490" width="100" height="30" as="geometry" />
        </mxCell>
        <mxCell id="0ckDdjpmDs_dE9RsHQcH-12" value="浏览轮播图" style="ellipse;whiteSpace=wrap;html=1;" parent="0ckDdjpmDs_dE9RsHQcH-1" vertex="1">
          <mxGeometry x="453" y="530" width="100" height="30" as="geometry" />
        </mxCell>
        <mxCell id="0ckDdjpmDs_dE9RsHQcH-13" value="添加轮播图" style="ellipse;whiteSpace=wrap;html=1;" parent="0ckDdjpmDs_dE9RsHQcH-1" vertex="1">
          <mxGeometry x="453" y="570" width="100" height="30" as="geometry" />
        </mxCell>
        <mxCell id="0ckDdjpmDs_dE9RsHQcH-14" value="修改轮播图" style="ellipse;whiteSpace=wrap;html=1;" parent="0ckDdjpmDs_dE9RsHQcH-1" vertex="1">
          <mxGeometry x="453" y="615" width="100" height="30" as="geometry" />
        </mxCell>
        <mxCell id="0ckDdjpmDs_dE9RsHQcH-15" value="删除轮播图" style="ellipse;whiteSpace=wrap;html=1;" parent="0ckDdjpmDs_dE9RsHQcH-1" vertex="1">
          <mxGeometry x="453" y="660" width="100" height="30" as="geometry" />
        </mxCell>
        <mxCell id="0ckDdjpmDs_dE9RsHQcH-16" value="用户管理" style="ellipse;whiteSpace=wrap;html=1;" parent="0ckDdjpmDs_dE9RsHQcH-1" vertex="1">
          <mxGeometry x="239" y="140" width="100" height="30" as="geometry" />
        </mxCell>
        <mxCell id="0ckDdjpmDs_dE9RsHQcH-17" value="猜你喜欢" style="ellipse;whiteSpace=wrap;html=1;" parent="0ckDdjpmDs_dE9RsHQcH-1" vertex="1">
          <mxGeometry x="239" y="310" width="100" height="30" as="geometry" />
        </mxCell>
        <mxCell id="0ckDdjpmDs_dE9RsHQcH-18" value="公告管理" style="ellipse;whiteSpace=wrap;html=1;" parent="0ckDdjpmDs_dE9RsHQcH-1" vertex="1">
          <mxGeometry x="239" y="420" width="100" height="30" as="geometry" />
        </mxCell>
        <mxCell id="0ckDdjpmDs_dE9RsHQcH-19" value="轮播图管理" style="ellipse;whiteSpace=wrap;html=1;" parent="0ckDdjpmDs_dE9RsHQcH-1" vertex="1">
          <mxGeometry x="239" y="590" width="100" height="30" as="geometry" />
        </mxCell>
        <mxCell id="0ckDdjpmDs_dE9RsHQcH-20" value="《包含》" style="endArrow=open;endSize=12;dashed=1;html=1;entryX=0;entryY=0.5;entryDx=0;entryDy=0;exitX=1;exitY=0.5;exitDx=0;exitDy=0;" parent="0ckDdjpmDs_dE9RsHQcH-1" source="0ckDdjpmDs_dE9RsHQcH-16" target="0ckDdjpmDs_dE9RsHQcH-3" edge="1">
          <mxGeometry width="160" relative="1" as="geometry">
            <mxPoint x="369" y="164.70999999999998" as="sourcePoint" />
            <mxPoint x="529" y="164.70999999999998" as="targetPoint" />
          </mxGeometry>
        </mxCell>
        <mxCell id="0ckDdjpmDs_dE9RsHQcH-21" value="《包含》" style="endArrow=open;endSize=12;dashed=1;html=1;entryX=0;entryY=0.5;entryDx=0;entryDy=0;exitX=1;exitY=0.5;exitDx=0;exitDy=0;" parent="0ckDdjpmDs_dE9RsHQcH-1" source="0ckDdjpmDs_dE9RsHQcH-16" target="0ckDdjpmDs_dE9RsHQcH-6" edge="1">
          <mxGeometry width="160" relative="1" as="geometry">
            <mxPoint x="379" y="174.70999999999998" as="sourcePoint" />
            <mxPoint x="463" y="115" as="targetPoint" />
          </mxGeometry>
        </mxCell>
        <mxCell id="0ckDdjpmDs_dE9RsHQcH-22" value="《包含》" style="endArrow=open;endSize=12;dashed=1;html=1;entryX=0;entryY=0.5;entryDx=0;entryDy=0;exitX=1;exitY=0.5;exitDx=0;exitDy=0;" parent="0ckDdjpmDs_dE9RsHQcH-1" source="0ckDdjpmDs_dE9RsHQcH-16" target="0ckDdjpmDs_dE9RsHQcH-5" edge="1">
          <mxGeometry width="160" relative="1" as="geometry">
            <mxPoint x="379" y="175" as="sourcePoint" />
            <mxPoint x="463" y="155" as="targetPoint" />
          </mxGeometry>
        </mxCell>
        <mxCell id="0ckDdjpmDs_dE9RsHQcH-23" value="《包含》" style="endArrow=open;endSize=12;dashed=1;html=1;entryX=0;entryY=0.5;entryDx=0;entryDy=0;exitX=1;exitY=0.5;exitDx=0;exitDy=0;" parent="0ckDdjpmDs_dE9RsHQcH-1" source="0ckDdjpmDs_dE9RsHQcH-16" target="0ckDdjpmDs_dE9RsHQcH-4" edge="1">
          <mxGeometry width="160" relative="1" as="geometry">
            <mxPoint x="369" y="170" as="sourcePoint" />
            <mxPoint x="463" y="195" as="targetPoint" />
          </mxGeometry>
        </mxCell>
        <mxCell id="0ckDdjpmDs_dE9RsHQcH-24" value="《包含》" style="endArrow=open;endSize=12;dashed=1;html=1;entryX=-0.001;entryY=0.554;entryDx=0;entryDy=0;exitX=1;exitY=0.5;exitDx=0;exitDy=0;entryPerimeter=0;" parent="0ckDdjpmDs_dE9RsHQcH-1" source="0ckDdjpmDs_dE9RsHQcH-17" target="0ckDdjpmDs_dE9RsHQcH-2" edge="1">
          <mxGeometry width="160" relative="1" as="geometry">
            <mxPoint x="378.9999999999998" y="215" as="sourcePoint" />
            <mxPoint x="462.9999999999993" y="275" as="targetPoint" />
          </mxGeometry>
        </mxCell>
        <mxCell id="0ckDdjpmDs_dE9RsHQcH-25" value="《包含》" style="endArrow=open;endSize=12;dashed=1;html=1;entryX=0;entryY=0.5;entryDx=0;entryDy=0;exitX=1;exitY=0.5;exitDx=0;exitDy=0;" parent="0ckDdjpmDs_dE9RsHQcH-1" source="0ckDdjpmDs_dE9RsHQcH-17" target="0ckDdjpmDs_dE9RsHQcH-10" edge="1">
          <mxGeometry width="160" relative="1" as="geometry">
            <mxPoint x="378.9999999999998" y="215" as="sourcePoint" />
            <mxPoint x="462.9" y="316.62" as="targetPoint" />
          </mxGeometry>
        </mxCell>
        <mxCell id="0ckDdjpmDs_dE9RsHQcH-26" value="《包含》" style="endArrow=open;endSize=12;dashed=1;html=1;exitX=1;exitY=0.5;exitDx=0;exitDy=0;entryX=0;entryY=0.5;entryDx=0;entryDy=0;" parent="0ckDdjpmDs_dE9RsHQcH-1" source="0ckDdjpmDs_dE9RsHQcH-18" target="0ckDdjpmDs_dE9RsHQcH-7" edge="1">
          <mxGeometry width="160" relative="1" as="geometry">
            <mxPoint x="369" y="210" as="sourcePoint" />
            <mxPoint x="439" y="360" as="targetPoint" />
          </mxGeometry>
        </mxCell>
        <mxCell id="0ckDdjpmDs_dE9RsHQcH-45" value="《包含》" style="endArrow=open;endSize=12;dashed=1;html=1;exitX=1;exitY=0.5;exitDx=0;exitDy=0;entryX=0;entryY=0.5;entryDx=0;entryDy=0;" parent="0ckDdjpmDs_dE9RsHQcH-1" source="0ckDdjpmDs_dE9RsHQcH-18" target="0ckDdjpmDs_dE9RsHQcH-8" edge="1">
          <mxGeometry width="160" relative="1" as="geometry">
            <mxPoint x="378.9999999999998" y="215" as="sourcePoint" />
            <mxPoint x="462.9999999999993" y="395" as="targetPoint" />
          </mxGeometry>
        </mxCell>
        <mxCell id="0ckDdjpmDs_dE9RsHQcH-46" value="《包含》" style="endArrow=open;endSize=12;dashed=1;html=1;exitX=1;exitY=0.5;exitDx=0;exitDy=0;entryX=0;entryY=0.5;entryDx=0;entryDy=0;" parent="0ckDdjpmDs_dE9RsHQcH-1" source="0ckDdjpmDs_dE9RsHQcH-18" target="0ckDdjpmDs_dE9RsHQcH-9" edge="1">
          <mxGeometry width="160" relative="1" as="geometry">
            <mxPoint x="349" y="415" as="sourcePoint" />
            <mxPoint x="463" y="435" as="targetPoint" />
          </mxGeometry>
        </mxCell>
        <mxCell id="0ckDdjpmDs_dE9RsHQcH-47" value="《包含》" style="endArrow=open;endSize=12;dashed=1;html=1;exitX=1;exitY=0.5;exitDx=0;exitDy=0;entryX=0;entryY=0.5;entryDx=0;entryDy=0;" parent="0ckDdjpmDs_dE9RsHQcH-1" source="0ckDdjpmDs_dE9RsHQcH-18" target="0ckDdjpmDs_dE9RsHQcH-11" edge="1">
          <mxGeometry width="160" relative="1" as="geometry">
            <mxPoint x="348.99999999999966" y="415" as="sourcePoint" />
            <mxPoint x="463.0000000000001" y="475" as="targetPoint" />
          </mxGeometry>
        </mxCell>
        <mxCell id="0ckDdjpmDs_dE9RsHQcH-48" value="《包含》" style="endArrow=open;endSize=12;dashed=1;html=1;exitX=1;exitY=0.5;exitDx=0;exitDy=0;entryX=0;entryY=0.5;entryDx=0;entryDy=0;" parent="0ckDdjpmDs_dE9RsHQcH-1" source="0ckDdjpmDs_dE9RsHQcH-19" target="0ckDdjpmDs_dE9RsHQcH-12" edge="1">
          <mxGeometry width="160" relative="1" as="geometry">
            <mxPoint x="299.00000000000125" y="560" as="sourcePoint" />
            <mxPoint x="413" y="660" as="targetPoint" />
          </mxGeometry>
        </mxCell>
        <mxCell id="0ckDdjpmDs_dE9RsHQcH-49" value="《包含》" style="endArrow=open;endSize=12;dashed=1;html=1;exitX=1;exitY=0.5;exitDx=0;exitDy=0;entryX=0;entryY=0.5;entryDx=0;entryDy=0;" parent="0ckDdjpmDs_dE9RsHQcH-1" source="0ckDdjpmDs_dE9RsHQcH-19" target="0ckDdjpmDs_dE9RsHQcH-13" edge="1">
          <mxGeometry width="160" relative="1" as="geometry">
            <mxPoint x="309.00000000000057" y="565" as="sourcePoint" />
            <mxPoint x="463" y="555" as="targetPoint" />
          </mxGeometry>
        </mxCell>
        <mxCell id="0ckDdjpmDs_dE9RsHQcH-50" value="《包含》" style="endArrow=open;endSize=12;dashed=1;html=1;exitX=1;exitY=0.5;exitDx=0;exitDy=0;entryX=0.017;entryY=0.413;entryDx=0;entryDy=0;entryPerimeter=0;" parent="0ckDdjpmDs_dE9RsHQcH-1" source="0ckDdjpmDs_dE9RsHQcH-19" target="0ckDdjpmDs_dE9RsHQcH-14" edge="1">
          <mxGeometry width="160" relative="1" as="geometry">
            <mxPoint x="319.00000000000057" y="575" as="sourcePoint" />
            <mxPoint x="473" y="565" as="targetPoint" />
          </mxGeometry>
        </mxCell>
        <mxCell id="0ckDdjpmDs_dE9RsHQcH-51" value="《包含》" style="endArrow=open;endSize=12;dashed=1;html=1;exitX=1;exitY=0.5;exitDx=0;exitDy=0;entryX=0;entryY=0.5;entryDx=0;entryDy=0;" parent="0ckDdjpmDs_dE9RsHQcH-1" source="0ckDdjpmDs_dE9RsHQcH-19" target="0ckDdjpmDs_dE9RsHQcH-15" edge="1">
          <mxGeometry width="160" relative="1" as="geometry">
            <mxPoint x="329.00000000000057" y="585" as="sourcePoint" />
            <mxPoint x="483" y="575" as="targetPoint" />
          </mxGeometry>
        </mxCell>
        <mxCell id="MmjuLH4hPu6t8Vl01_Wl-0" value="用户" style="shape=umlActor;verticalLabelPosition=bottom;verticalAlign=top;html=1;" parent="0ckDdjpmDs_dE9RsHQcH-1" vertex="1">
          <mxGeometry x="789" y="415" width="20" height="40" as="geometry" />
        </mxCell>
        <mxCell id="MmjuLH4hPu6t8Vl01_Wl-1" value="管理员" style="shape=umlActor;verticalLabelPosition=bottom;verticalAlign=top;html=1;" parent="0ckDdjpmDs_dE9RsHQcH-1" vertex="1">
          <mxGeometry x="789" y="485" width="20" height="40" as="geometry" />
        </mxCell>
        <mxCell id="MmjuLH4hPu6t8Vl01_Wl-10" value="" style="endArrow=none;html=1;entryX=0.5;entryY=0.5;entryDx=0;entryDy=0;entryPerimeter=0;exitX=1;exitY=0.5;exitDx=0;exitDy=0;" parent="0ckDdjpmDs_dE9RsHQcH-1" source="0ckDdjpmDs_dE9RsHQcH-3" target="MmjuLH4hPu6t8Vl01_Wl-0" edge="1">
          <mxGeometry width="50" height="50" relative="1" as="geometry">
            <mxPoint x="569" y="130" as="sourcePoint" />
            <mxPoint x="619" y="80" as="targetPoint" />
          </mxGeometry>
        </mxCell>
        <mxCell id="MmjuLH4hPu6t8Vl01_Wl-16" value="" style="endArrow=none;html=1;entryX=0.5;entryY=0.5;entryDx=0;entryDy=0;entryPerimeter=0;exitX=1;exitY=0.5;exitDx=0;exitDy=0;" parent="0ckDdjpmDs_dE9RsHQcH-1" source="0ckDdjpmDs_dE9RsHQcH-6" target="MmjuLH4hPu6t8Vl01_Wl-0" edge="1">
          <mxGeometry width="50" height="50" relative="1" as="geometry">
            <mxPoint x="563" y="115" as="sourcePoint" />
            <mxPoint x="769" y="330" as="targetPoint" />
          </mxGeometry>
        </mxCell>
        <mxCell id="MmjuLH4hPu6t8Vl01_Wl-17" value="" style="endArrow=none;html=1;exitX=1;exitY=0.5;exitDx=0;exitDy=0;entryX=0.5;entryY=0.5;entryDx=0;entryDy=0;entryPerimeter=0;" parent="0ckDdjpmDs_dE9RsHQcH-1" source="0ckDdjpmDs_dE9RsHQcH-5" edge="1" target="MmjuLH4hPu6t8Vl01_Wl-0">
          <mxGeometry width="50" height="50" relative="1" as="geometry">
            <mxPoint x="563" y="155" as="sourcePoint" />
            <mxPoint x="789" y="270" as="targetPoint" />
          </mxGeometry>
        </mxCell>
        <mxCell id="MmjuLH4hPu6t8Vl01_Wl-18" value="" style="endArrow=none;html=1;exitX=1;exitY=0.5;exitDx=0;exitDy=0;entryX=0.5;entryY=0.5;entryDx=0;entryDy=0;entryPerimeter=0;" parent="0ckDdjpmDs_dE9RsHQcH-1" source="0ckDdjpmDs_dE9RsHQcH-2" edge="1" target="MmjuLH4hPu6t8Vl01_Wl-0">
          <mxGeometry width="50" height="50" relative="1" as="geometry">
            <mxPoint x="563" y="195" as="sourcePoint" />
            <mxPoint x="759" y="320" as="targetPoint" />
          </mxGeometry>
        </mxCell>
        <mxCell id="MmjuLH4hPu6t8Vl01_Wl-19" value="" style="endArrow=none;html=1;exitX=1;exitY=0.5;exitDx=0;exitDy=0;entryX=0.5;entryY=0.5;entryDx=0;entryDy=0;entryPerimeter=0;" parent="0ckDdjpmDs_dE9RsHQcH-1" source="0ckDdjpmDs_dE9RsHQcH-10" edge="1" target="MmjuLH4hPu6t8Vl01_Wl-0">
          <mxGeometry width="50" height="50" relative="1" as="geometry">
            <mxPoint x="563" y="275" as="sourcePoint" />
            <mxPoint x="759" y="320" as="targetPoint" />
          </mxGeometry>
        </mxCell>
        <mxCell id="MmjuLH4hPu6t8Vl01_Wl-20" value="" style="endArrow=none;html=1;exitX=1;exitY=0.5;exitDx=0;exitDy=0;entryX=0.5;entryY=0.5;entryDx=0;entryDy=0;entryPerimeter=0;" parent="0ckDdjpmDs_dE9RsHQcH-1" source="0ckDdjpmDs_dE9RsHQcH-7" target="MmjuLH4hPu6t8Vl01_Wl-0" edge="1">
          <mxGeometry width="50" height="50" relative="1" as="geometry">
            <mxPoint x="563" y="315" as="sourcePoint" />
            <mxPoint x="769" y="330" as="targetPoint" />
          </mxGeometry>
        </mxCell>
        <mxCell id="MmjuLH4hPu6t8Vl01_Wl-21" value="" style="endArrow=none;html=1;exitX=1;exitY=0.5;exitDx=0;exitDy=0;entryX=0.5;entryY=0.5;entryDx=0;entryDy=0;entryPerimeter=0;" parent="0ckDdjpmDs_dE9RsHQcH-1" source="0ckDdjpmDs_dE9RsHQcH-12" target="MmjuLH4hPu6t8Vl01_Wl-0" edge="1">
          <mxGeometry width="50" height="50" relative="1" as="geometry">
            <mxPoint x="563" y="355" as="sourcePoint" />
            <mxPoint x="769" y="330" as="targetPoint" />
          </mxGeometry>
        </mxCell>
        <mxCell id="MmjuLH4hPu6t8Vl01_Wl-23" value="" style="endArrow=none;html=1;entryX=0.5;entryY=0.5;entryDx=0;entryDy=0;entryPerimeter=0;exitX=1;exitY=0.5;exitDx=0;exitDy=0;" parent="0ckDdjpmDs_dE9RsHQcH-1" source="0ckDdjpmDs_dE9RsHQcH-6" target="MmjuLH4hPu6t8Vl01_Wl-1" edge="1">
          <mxGeometry width="50" height="50" relative="1" as="geometry">
            <mxPoint x="563" y="155" as="sourcePoint" />
            <mxPoint x="769" y="330" as="targetPoint" />
          </mxGeometry>
        </mxCell>
        <mxCell id="MmjuLH4hPu6t8Vl01_Wl-24" value="" style="endArrow=none;html=1;exitX=1;exitY=0.5;exitDx=0;exitDy=0;entryX=0.5;entryY=0.5;entryDx=0;entryDy=0;entryPerimeter=0;" parent="0ckDdjpmDs_dE9RsHQcH-1" source="0ckDdjpmDs_dE9RsHQcH-4" edge="1" target="MmjuLH4hPu6t8Vl01_Wl-1">
          <mxGeometry width="50" height="50" relative="1" as="geometry">
            <mxPoint x="563" y="155" as="sourcePoint" />
            <mxPoint x="759" y="430" as="targetPoint" />
          </mxGeometry>
        </mxCell>
        <mxCell id="MmjuLH4hPu6t8Vl01_Wl-25" value="" style="endArrow=none;html=1;exitX=1;exitY=0.5;exitDx=0;exitDy=0;entryX=0.5;entryY=0.5;entryDx=0;entryDy=0;entryPerimeter=0;" parent="0ckDdjpmDs_dE9RsHQcH-1" source="0ckDdjpmDs_dE9RsHQcH-7" edge="1" target="MmjuLH4hPu6t8Vl01_Wl-1">
          <mxGeometry width="50" height="50" relative="1" as="geometry">
            <mxPoint x="563" y="235" as="sourcePoint" />
            <mxPoint x="759" y="430" as="targetPoint" />
          </mxGeometry>
        </mxCell>
        <mxCell id="MmjuLH4hPu6t8Vl01_Wl-26" value="" style="endArrow=none;html=1;exitX=1;exitY=0.5;exitDx=0;exitDy=0;entryX=0.5;entryY=0.5;entryDx=0;entryDy=0;entryPerimeter=0;" parent="0ckDdjpmDs_dE9RsHQcH-1" source="0ckDdjpmDs_dE9RsHQcH-8" target="MmjuLH4hPu6t8Vl01_Wl-1" edge="1">
          <mxGeometry width="50" height="50" relative="1" as="geometry">
            <mxPoint x="563" y="355" as="sourcePoint" />
            <mxPoint x="769" y="439.9999999999999" as="targetPoint" />
          </mxGeometry>
        </mxCell>
        <mxCell id="MmjuLH4hPu6t8Vl01_Wl-27" value="" style="endArrow=none;html=1;exitX=1;exitY=0.5;exitDx=0;exitDy=0;entryX=0.5;entryY=0.5;entryDx=0;entryDy=0;entryPerimeter=0;" parent="0ckDdjpmDs_dE9RsHQcH-1" source="0ckDdjpmDs_dE9RsHQcH-9" target="MmjuLH4hPu6t8Vl01_Wl-1" edge="1">
          <mxGeometry width="50" height="50" relative="1" as="geometry">
            <mxPoint x="563" y="395" as="sourcePoint" />
            <mxPoint x="769" y="439.9999999999999" as="targetPoint" />
          </mxGeometry>
        </mxCell>
        <mxCell id="MmjuLH4hPu6t8Vl01_Wl-28" value="" style="endArrow=none;html=1;exitX=1;exitY=0.5;exitDx=0;exitDy=0;entryX=0.5;entryY=0.5;entryDx=0;entryDy=0;entryPerimeter=0;" parent="0ckDdjpmDs_dE9RsHQcH-1" source="0ckDdjpmDs_dE9RsHQcH-11" target="MmjuLH4hPu6t8Vl01_Wl-1" edge="1">
          <mxGeometry width="50" height="50" relative="1" as="geometry">
            <mxPoint x="563" y="434.9999999999999" as="sourcePoint" />
            <mxPoint x="769" y="439.9999999999999" as="targetPoint" />
          </mxGeometry>
        </mxCell>
        <mxCell id="MmjuLH4hPu6t8Vl01_Wl-29" value="" style="endArrow=none;html=1;exitX=1;exitY=0.5;exitDx=0;exitDy=0;entryX=0.5;entryY=0.5;entryDx=0;entryDy=0;entryPerimeter=0;" parent="0ckDdjpmDs_dE9RsHQcH-1" source="0ckDdjpmDs_dE9RsHQcH-13" target="MmjuLH4hPu6t8Vl01_Wl-1" edge="1">
          <mxGeometry width="50" height="50" relative="1" as="geometry">
            <mxPoint x="563" y="474.9999999999999" as="sourcePoint" />
            <mxPoint x="769" y="439.9999999999999" as="targetPoint" />
          </mxGeometry>
        </mxCell>
        <mxCell id="MmjuLH4hPu6t8Vl01_Wl-30" value="" style="endArrow=none;html=1;exitX=1;exitY=0.5;exitDx=0;exitDy=0;entryX=0.5;entryY=0.5;entryDx=0;entryDy=0;entryPerimeter=0;" parent="0ckDdjpmDs_dE9RsHQcH-1" source="0ckDdjpmDs_dE9RsHQcH-14" edge="1" target="MmjuLH4hPu6t8Vl01_Wl-1">
          <mxGeometry width="50" height="50" relative="1" as="geometry">
            <mxPoint x="563" y="554.9999999999999" as="sourcePoint" />
            <mxPoint x="759" y="430" as="targetPoint" />
          </mxGeometry>
        </mxCell>
        <mxCell id="MmjuLH4hPu6t8Vl01_Wl-31" value="" style="endArrow=none;html=1;exitX=1;exitY=0.5;exitDx=0;exitDy=0;entryX=0.5;entryY=0.5;entryDx=0;entryDy=0;entryPerimeter=0;" parent="0ckDdjpmDs_dE9RsHQcH-1" source="0ckDdjpmDs_dE9RsHQcH-15" target="MmjuLH4hPu6t8Vl01_Wl-1" edge="1">
          <mxGeometry width="50" height="50" relative="1" as="geometry">
            <mxPoint x="563" y="599.9999999999999" as="sourcePoint" />
            <mxPoint x="769" y="439.9999999999999" as="targetPoint" />
          </mxGeometry>
        </mxCell>
        <mxCell id="MmjuLH4hPu6t8Vl01_Wl-32" value="用户删除" style="ellipse;whiteSpace=wrap;html=1;" parent="0ckDdjpmDs_dE9RsHQcH-1" vertex="1">
          <mxGeometry x="453" y="250" width="100" height="30" as="geometry" />
        </mxCell>
        <mxCell id="MmjuLH4hPu6t8Vl01_Wl-33" value="" style="endArrow=none;html=1;exitX=1;exitY=0.5;exitDx=0;exitDy=0;entryX=0.5;entryY=0.5;entryDx=0;entryDy=0;entryPerimeter=0;" parent="0ckDdjpmDs_dE9RsHQcH-1" source="MmjuLH4hPu6t8Vl01_Wl-32" edge="1" target="MmjuLH4hPu6t8Vl01_Wl-1">
          <mxGeometry width="50" height="50" relative="1" as="geometry">
            <mxPoint x="563" y="235" as="sourcePoint" />
            <mxPoint x="759" y="430" as="targetPoint" />
          </mxGeometry>
        </mxCell>
        <mxCell id="MmjuLH4hPu6t8Vl01_Wl-34" value="《包含》" style="endArrow=open;endSize=12;dashed=1;html=1;entryX=0;entryY=0.5;entryDx=0;entryDy=0;exitX=1;exitY=0.5;exitDx=0;exitDy=0;" parent="0ckDdjpmDs_dE9RsHQcH-1" source="0ckDdjpmDs_dE9RsHQcH-16" target="MmjuLH4hPu6t8Vl01_Wl-32" edge="1">
          <mxGeometry width="160" relative="1" as="geometry">
            <mxPoint x="349.0000000000001" y="165" as="sourcePoint" />
            <mxPoint x="463" y="235" as="targetPoint" />
          </mxGeometry>
        </mxCell>
        <mxCell id="nohBmwYygsqdhBH7Xajy-0" value="商城系统" style="ellipse;whiteSpace=wrap;html=1;" parent="0ckDdjpmDs_dE9RsHQcH-1" vertex="1">
          <mxGeometry x="19" y="490" width="100" height="30" as="geometry" />
        </mxCell>
        <mxCell id="nohBmwYygsqdhBH7Xajy-1" value="《包含》" style="endArrow=open;endSize=12;dashed=1;html=1;entryX=0;entryY=0.5;entryDx=0;entryDy=0;exitX=1;exitY=0.5;exitDx=0;exitDy=0;" parent="0ckDdjpmDs_dE9RsHQcH-1" source="nohBmwYygsqdhBH7Xajy-0" target="0ckDdjpmDs_dE9RsHQcH-16" edge="1">
          <mxGeometry width="160" relative="1" as="geometry">
            <mxPoint x="149" y="370" as="sourcePoint" />
            <mxPoint x="263" y="320" as="targetPoint" />
          </mxGeometry>
        </mxCell>
        <mxCell id="nohBmwYygsqdhBH7Xajy-2" value="《包含》" style="endArrow=open;endSize=12;dashed=1;html=1;entryX=0;entryY=0.5;entryDx=0;entryDy=0;exitX=1;exitY=0.5;exitDx=0;exitDy=0;" parent="0ckDdjpmDs_dE9RsHQcH-1" source="nohBmwYygsqdhBH7Xajy-0" target="0ckDdjpmDs_dE9RsHQcH-17" edge="1">
          <mxGeometry width="160" relative="1" as="geometry">
            <mxPoint x="159" y="375" as="sourcePoint" />
            <mxPoint x="248.99999999999898" y="165" as="targetPoint" />
          </mxGeometry>
        </mxCell>
        <mxCell id="nohBmwYygsqdhBH7Xajy-3" value="《包含》" style="endArrow=open;endSize=12;dashed=1;html=1;entryX=0;entryY=0.5;entryDx=0;entryDy=0;exitX=1;exitY=0.5;exitDx=0;exitDy=0;" parent="0ckDdjpmDs_dE9RsHQcH-1" source="nohBmwYygsqdhBH7Xajy-0" target="0ckDdjpmDs_dE9RsHQcH-18" edge="1">
          <mxGeometry width="160" relative="1" as="geometry">
            <mxPoint x="159" y="375" as="sourcePoint" />
            <mxPoint x="249" y="335" as="targetPoint" />
          </mxGeometry>
        </mxCell>
        <mxCell id="nohBmwYygsqdhBH7Xajy-4" value="《包含》" style="endArrow=open;endSize=12;dashed=1;html=1;entryX=0;entryY=0.5;entryDx=0;entryDy=0;exitX=1;exitY=0.5;exitDx=0;exitDy=0;" parent="0ckDdjpmDs_dE9RsHQcH-1" source="nohBmwYygsqdhBH7Xajy-0" target="0ckDdjpmDs_dE9RsHQcH-19" edge="1">
          <mxGeometry width="160" relative="1" as="geometry">
            <mxPoint x="159" y="375" as="sourcePoint" />
            <mxPoint x="249" y="445" as="targetPoint" />
          </mxGeometry>
        </mxCell>
        <mxCell id="6ZryiUSjuZOmoloK8SBP-0" value="热销排行榜" style="ellipse;whiteSpace=wrap;html=1;" vertex="1" parent="0ckDdjpmDs_dE9RsHQcH-1">
          <mxGeometry x="453" y="700" width="100" height="30" as="geometry" />
        </mxCell>
        <mxCell id="6ZryiUSjuZOmoloK8SBP-1" value="猜你喜欢" style="ellipse;whiteSpace=wrap;html=1;" vertex="1" parent="0ckDdjpmDs_dE9RsHQcH-1">
          <mxGeometry x="453" y="740" width="100" height="30" as="geometry" />
        </mxCell>
        <mxCell id="6ZryiUSjuZOmoloK8SBP-2" value="统计总订单量" style="ellipse;whiteSpace=wrap;html=1;" vertex="1" parent="0ckDdjpmDs_dE9RsHQcH-1">
          <mxGeometry x="453" y="780" width="100" height="30" as="geometry" />
        </mxCell>
        <mxCell id="6ZryiUSjuZOmoloK8SBP-3" value="统计待发货订单量" style="ellipse;whiteSpace=wrap;html=1;" vertex="1" parent="0ckDdjpmDs_dE9RsHQcH-1">
          <mxGeometry x="453" y="820" width="100" height="30" as="geometry" />
        </mxCell>
        <mxCell id="6ZryiUSjuZOmoloK8SBP-4" value="商品销量排行" style="ellipse;whiteSpace=wrap;html=1;" vertex="1" parent="0ckDdjpmDs_dE9RsHQcH-1">
          <mxGeometry x="453" y="860" width="100" height="30" as="geometry" />
        </mxCell>
        <mxCell id="6ZryiUSjuZOmoloK8SBP-5" value="前台首页" style="ellipse;whiteSpace=wrap;html=1;" vertex="1" parent="0ckDdjpmDs_dE9RsHQcH-1">
          <mxGeometry x="229" y="720" width="100" height="30" as="geometry" />
        </mxCell>
        <mxCell id="6ZryiUSjuZOmoloK8SBP-6" value="后台首页" style="ellipse;whiteSpace=wrap;html=1;" vertex="1" parent="0ckDdjpmDs_dE9RsHQcH-1">
          <mxGeometry x="229" y="820" width="100" height="30" as="geometry" />
        </mxCell>
        <mxCell id="6ZryiUSjuZOmoloK8SBP-8" value="《包含》" style="endArrow=open;endSize=12;dashed=1;html=1;exitX=1;exitY=0.5;exitDx=0;exitDy=0;entryX=0;entryY=0.5;entryDx=0;entryDy=0;" edge="1" parent="0ckDdjpmDs_dE9RsHQcH-1" source="6ZryiUSjuZOmoloK8SBP-5" target="6ZryiUSjuZOmoloK8SBP-0">
          <mxGeometry width="160" relative="1" as="geometry">
            <mxPoint x="349.00000000000136" y="615" as="sourcePoint" />
            <mxPoint x="463" y="685" as="targetPoint" />
          </mxGeometry>
        </mxCell>
        <mxCell id="6ZryiUSjuZOmoloK8SBP-9" value="《包含》" style="endArrow=open;endSize=12;dashed=1;html=1;entryX=0;entryY=0.5;entryDx=0;entryDy=0;exitX=1;exitY=0.5;exitDx=0;exitDy=0;" edge="1" parent="0ckDdjpmDs_dE9RsHQcH-1" source="6ZryiUSjuZOmoloK8SBP-5" target="6ZryiUSjuZOmoloK8SBP-1">
          <mxGeometry width="160" relative="1" as="geometry">
            <mxPoint x="329" y="740" as="sourcePoint" />
            <mxPoint x="463" y="735" as="targetPoint" />
          </mxGeometry>
        </mxCell>
        <mxCell id="6ZryiUSjuZOmoloK8SBP-10" value="《包含》" style="endArrow=open;endSize=12;dashed=1;html=1;entryX=0;entryY=0.5;entryDx=0;entryDy=0;exitX=1;exitY=0.5;exitDx=0;exitDy=0;" edge="1" parent="0ckDdjpmDs_dE9RsHQcH-1" source="6ZryiUSjuZOmoloK8SBP-6" target="6ZryiUSjuZOmoloK8SBP-2">
          <mxGeometry width="160" relative="1" as="geometry">
            <mxPoint x="339" y="750" as="sourcePoint" />
            <mxPoint x="463" y="765" as="targetPoint" />
          </mxGeometry>
        </mxCell>
        <mxCell id="6ZryiUSjuZOmoloK8SBP-11" value="《包含》" style="endArrow=open;endSize=12;dashed=1;html=1;exitX=1;exitY=0.5;exitDx=0;exitDy=0;entryX=0;entryY=0.5;entryDx=0;entryDy=0;" edge="1" parent="0ckDdjpmDs_dE9RsHQcH-1" source="6ZryiUSjuZOmoloK8SBP-6" target="6ZryiUSjuZOmoloK8SBP-3">
          <mxGeometry width="160" relative="1" as="geometry">
            <mxPoint x="339" y="840" as="sourcePoint" />
            <mxPoint x="459" y="810" as="targetPoint" />
          </mxGeometry>
        </mxCell>
        <mxCell id="6ZryiUSjuZOmoloK8SBP-12" value="《包含》" style="endArrow=open;endSize=12;dashed=1;html=1;exitX=1;exitY=0.5;exitDx=0;exitDy=0;entryX=0;entryY=0.5;entryDx=0;entryDy=0;" edge="1" parent="0ckDdjpmDs_dE9RsHQcH-1" source="6ZryiUSjuZOmoloK8SBP-6" target="6ZryiUSjuZOmoloK8SBP-4">
          <mxGeometry width="160" relative="1" as="geometry">
            <mxPoint x="339" y="840" as="sourcePoint" />
            <mxPoint x="469" y="820" as="targetPoint" />
          </mxGeometry>
        </mxCell>
        <mxCell id="6ZryiUSjuZOmoloK8SBP-13" value="《包含》" style="endArrow=open;endSize=12;dashed=1;html=1;entryX=0;entryY=0.5;entryDx=0;entryDy=0;exitX=1;exitY=0.5;exitDx=0;exitDy=0;" edge="1" parent="0ckDdjpmDs_dE9RsHQcH-1" source="nohBmwYygsqdhBH7Xajy-0" target="6ZryiUSjuZOmoloK8SBP-5">
          <mxGeometry width="160" relative="1" as="geometry">
            <mxPoint x="159.00000000000148" y="374.9999999999999" as="sourcePoint" />
            <mxPoint x="248.99999999999875" y="615" as="targetPoint" />
          </mxGeometry>
        </mxCell>
        <mxCell id="6ZryiUSjuZOmoloK8SBP-14" value="《包含》" style="endArrow=open;endSize=12;dashed=1;html=1;entryX=0;entryY=0.5;entryDx=0;entryDy=0;exitX=1;exitY=0.5;exitDx=0;exitDy=0;" edge="1" parent="0ckDdjpmDs_dE9RsHQcH-1" source="nohBmwYygsqdhBH7Xajy-0" target="6ZryiUSjuZOmoloK8SBP-6">
          <mxGeometry width="160" relative="1" as="geometry">
            <mxPoint x="159" y="375" as="sourcePoint" />
            <mxPoint x="239" y="745" as="targetPoint" />
          </mxGeometry>
        </mxCell>
        <mxCell id="6ZryiUSjuZOmoloK8SBP-16" value="" style="endArrow=none;html=1;exitX=1;exitY=0.5;exitDx=0;exitDy=0;entryX=0.5;entryY=0.5;entryDx=0;entryDy=0;entryPerimeter=0;" edge="1" parent="0ckDdjpmDs_dE9RsHQcH-1" source="6ZryiUSjuZOmoloK8SBP-2" target="MmjuLH4hPu6t8Vl01_Wl-1">
          <mxGeometry width="50" height="50" relative="1" as="geometry">
            <mxPoint x="563" y="685" as="sourcePoint" />
            <mxPoint x="809" y="525" as="targetPoint" />
          </mxGeometry>
        </mxCell>
        <mxCell id="6ZryiUSjuZOmoloK8SBP-17" value="" style="endArrow=none;html=1;exitX=1;exitY=0.5;exitDx=0;exitDy=0;entryX=0.5;entryY=0.5;entryDx=0;entryDy=0;entryPerimeter=0;" edge="1" parent="0ckDdjpmDs_dE9RsHQcH-1" source="6ZryiUSjuZOmoloK8SBP-3" target="MmjuLH4hPu6t8Vl01_Wl-1">
          <mxGeometry width="50" height="50" relative="1" as="geometry">
            <mxPoint x="573" y="695" as="sourcePoint" />
            <mxPoint x="819" y="535" as="targetPoint" />
          </mxGeometry>
        </mxCell>
        <mxCell id="6ZryiUSjuZOmoloK8SBP-18" value="" style="endArrow=none;html=1;exitX=1;exitY=0.5;exitDx=0;exitDy=0;entryX=0.5;entryY=0.5;entryDx=0;entryDy=0;entryPerimeter=0;" edge="1" parent="0ckDdjpmDs_dE9RsHQcH-1" source="6ZryiUSjuZOmoloK8SBP-4" target="MmjuLH4hPu6t8Vl01_Wl-1">
          <mxGeometry width="50" height="50" relative="1" as="geometry">
            <mxPoint x="583" y="705" as="sourcePoint" />
            <mxPoint x="829" y="545" as="targetPoint" />
          </mxGeometry>
        </mxCell>
        <mxCell id="6ZryiUSjuZOmoloK8SBP-19" value="" style="endArrow=none;html=1;exitX=1;exitY=0.5;exitDx=0;exitDy=0;entryX=0.5;entryY=0.5;entryDx=0;entryDy=0;entryPerimeter=0;" edge="1" parent="0ckDdjpmDs_dE9RsHQcH-1" source="6ZryiUSjuZOmoloK8SBP-0" target="MmjuLH4hPu6t8Vl01_Wl-1">
          <mxGeometry width="50" height="50" relative="1" as="geometry">
            <mxPoint x="563" y="685" as="sourcePoint" />
            <mxPoint x="809" y="515" as="targetPoint" />
          </mxGeometry>
        </mxCell>
        <mxCell id="6ZryiUSjuZOmoloK8SBP-20" value="" style="endArrow=none;html=1;exitX=1;exitY=0.5;exitDx=0;exitDy=0;entryX=0.5;entryY=0.5;entryDx=0;entryDy=0;entryPerimeter=0;" edge="1" parent="0ckDdjpmDs_dE9RsHQcH-1" source="6ZryiUSjuZOmoloK8SBP-1" target="MmjuLH4hPu6t8Vl01_Wl-0">
          <mxGeometry width="50" height="50" relative="1" as="geometry">
            <mxPoint x="573" y="695" as="sourcePoint" />
            <mxPoint x="819" y="525" as="targetPoint" />
          </mxGeometry>
        </mxCell>
        <mxCell id="6ZryiUSjuZOmoloK8SBP-22" value="" style="endArrow=none;html=1;exitX=1;exitY=0.5;exitDx=0;exitDy=0;entryX=0.5;entryY=0.5;entryDx=0;entryDy=0;entryPerimeter=0;" edge="1" parent="0ckDdjpmDs_dE9RsHQcH-1" source="6ZryiUSjuZOmoloK8SBP-0" target="MmjuLH4hPu6t8Vl01_Wl-0">
          <mxGeometry width="50" height="50" relative="1" as="geometry">
            <mxPoint x="563" y="725" as="sourcePoint" />
            <mxPoint x="809" y="515" as="targetPoint" />
          </mxGeometry>
        </mxCell>
        <mxCell id="6FiVMI2iT1teIuD4gQrl-0" value="评价管理" style="ellipse;whiteSpace=wrap;html=1;" vertex="1" parent="0ckDdjpmDs_dE9RsHQcH-1">
          <mxGeometry x="229" y="940" width="100" height="30" as="geometry" />
        </mxCell>
        <mxCell id="6FiVMI2iT1teIuD4gQrl-1" value="删除评价" style="ellipse;whiteSpace=wrap;html=1;" vertex="1" parent="0ckDdjpmDs_dE9RsHQcH-1">
          <mxGeometry x="453" y="980" width="100" height="30" as="geometry" />
        </mxCell>
        <mxCell id="6FiVMI2iT1teIuD4gQrl-2" value="添加图片" style="ellipse;whiteSpace=wrap;html=1;" vertex="1" parent="0ckDdjpmDs_dE9RsHQcH-1">
          <mxGeometry x="453" y="940" width="100" height="30" as="geometry" />
        </mxCell>
        <mxCell id="6FiVMI2iT1teIuD4gQrl-3" value="添加评论" style="ellipse;whiteSpace=wrap;html=1;" vertex="1" parent="0ckDdjpmDs_dE9RsHQcH-1">
          <mxGeometry x="453" y="900" width="100" height="30" as="geometry" />
        </mxCell>
        <mxCell id="6FiVMI2iT1teIuD4gQrl-4" value="《包含》" style="endArrow=open;endSize=12;dashed=1;html=1;entryX=0;entryY=0.5;entryDx=0;entryDy=0;exitX=1;exitY=0.5;exitDx=0;exitDy=0;" edge="1" parent="0ckDdjpmDs_dE9RsHQcH-1" source="nohBmwYygsqdhBH7Xajy-0" target="6FiVMI2iT1teIuD4gQrl-0">
          <mxGeometry width="160" relative="1" as="geometry">
            <mxPoint x="129" y="515" as="sourcePoint" />
            <mxPoint x="239" y="845" as="targetPoint" />
          </mxGeometry>
        </mxCell>
        <mxCell id="6FiVMI2iT1teIuD4gQrl-5" value="《包含》" style="endArrow=open;endSize=12;dashed=1;html=1;exitX=1;exitY=0.5;exitDx=0;exitDy=0;entryX=0;entryY=0.5;entryDx=0;entryDy=0;" edge="1" parent="0ckDdjpmDs_dE9RsHQcH-1" source="6FiVMI2iT1teIuD4gQrl-0" target="6FiVMI2iT1teIuD4gQrl-3">
          <mxGeometry width="160" relative="1" as="geometry">
            <mxPoint x="339" y="845" as="sourcePoint" />
            <mxPoint x="463" y="885" as="targetPoint" />
          </mxGeometry>
        </mxCell>
        <mxCell id="6FiVMI2iT1teIuD4gQrl-6" value="《包含》" style="endArrow=open;endSize=12;dashed=1;html=1;exitX=1;exitY=0.5;exitDx=0;exitDy=0;entryX=0;entryY=0.5;entryDx=0;entryDy=0;" edge="1" parent="0ckDdjpmDs_dE9RsHQcH-1" source="6FiVMI2iT1teIuD4gQrl-0" target="6FiVMI2iT1teIuD4gQrl-2">
          <mxGeometry width="160" relative="1" as="geometry">
            <mxPoint x="339" y="845" as="sourcePoint" />
            <mxPoint x="463" y="885" as="targetPoint" />
          </mxGeometry>
        </mxCell>
        <mxCell id="6FiVMI2iT1teIuD4gQrl-7" value="《包含》" style="endArrow=open;endSize=12;dashed=1;html=1;exitX=1;exitY=0.5;exitDx=0;exitDy=0;entryX=0;entryY=0.5;entryDx=0;entryDy=0;" edge="1" parent="0ckDdjpmDs_dE9RsHQcH-1" source="6FiVMI2iT1teIuD4gQrl-0" target="6FiVMI2iT1teIuD4gQrl-1">
          <mxGeometry width="160" relative="1" as="geometry">
            <mxPoint x="339" y="965" as="sourcePoint" />
            <mxPoint x="463" y="965" as="targetPoint" />
          </mxGeometry>
        </mxCell>
        <mxCell id="6FiVMI2iT1teIuD4gQrl-8" value="" style="endArrow=none;html=1;exitX=1;exitY=0.5;exitDx=0;exitDy=0;entryX=0.5;entryY=0.5;entryDx=0;entryDy=0;entryPerimeter=0;" edge="1" parent="0ckDdjpmDs_dE9RsHQcH-1" source="6FiVMI2iT1teIuD4gQrl-3" target="MmjuLH4hPu6t8Vl01_Wl-0">
          <mxGeometry width="50" height="50" relative="1" as="geometry">
            <mxPoint x="563" y="885" as="sourcePoint" />
            <mxPoint x="809" y="515" as="targetPoint" />
          </mxGeometry>
        </mxCell>
        <mxCell id="6FiVMI2iT1teIuD4gQrl-9" value="" style="endArrow=none;html=1;exitX=1;exitY=0.5;exitDx=0;exitDy=0;entryX=0.5;entryY=0.5;entryDx=0;entryDy=0;entryPerimeter=0;" edge="1" parent="0ckDdjpmDs_dE9RsHQcH-1" source="6FiVMI2iT1teIuD4gQrl-2" target="MmjuLH4hPu6t8Vl01_Wl-0">
          <mxGeometry width="50" height="50" relative="1" as="geometry">
            <mxPoint x="563" y="925" as="sourcePoint" />
            <mxPoint x="819" y="525" as="targetPoint" />
          </mxGeometry>
        </mxCell>
        <mxCell id="6FiVMI2iT1teIuD4gQrl-10" value="" style="endArrow=none;html=1;exitX=1;exitY=0.5;exitDx=0;exitDy=0;entryX=0.5;entryY=0.5;entryDx=0;entryDy=0;entryPerimeter=0;" edge="1" parent="0ckDdjpmDs_dE9RsHQcH-1" source="6FiVMI2iT1teIuD4gQrl-1" target="MmjuLH4hPu6t8Vl01_Wl-0">
          <mxGeometry width="50" height="50" relative="1" as="geometry">
            <mxPoint x="563" y="965" as="sourcePoint" />
            <mxPoint x="829" y="580" as="targetPoint" />
          </mxGeometry>
        </mxCell>
        <mxCell id="6FiVMI2iT1teIuD4gQrl-11" value="" style="endArrow=none;html=1;entryX=0.5;entryY=0.5;entryDx=0;entryDy=0;entryPerimeter=0;exitX=1;exitY=0.5;exitDx=0;exitDy=0;" edge="1" parent="0ckDdjpmDs_dE9RsHQcH-1" source="6FiVMI2iT1teIuD4gQrl-1" target="MmjuLH4hPu6t8Vl01_Wl-1">
          <mxGeometry width="50" height="50" relative="1" as="geometry">
            <mxPoint x="579" y="1005" as="sourcePoint" />
            <mxPoint x="839" y="545" as="targetPoint" />
          </mxGeometry>
        </mxCell>
        <mxCell id="6FiVMI2iT1teIuD4gQrl-12" value="查询评价" style="ellipse;whiteSpace=wrap;html=1;" vertex="1" parent="0ckDdjpmDs_dE9RsHQcH-1">
          <mxGeometry x="453" y="1020" width="100" height="30" as="geometry" />
        </mxCell>
        <mxCell id="6FiVMI2iT1teIuD4gQrl-13" value="《包含》" style="endArrow=open;endSize=12;dashed=1;html=1;exitX=1;exitY=0.5;exitDx=0;exitDy=0;entryX=0;entryY=0.5;entryDx=0;entryDy=0;" edge="1" parent="0ckDdjpmDs_dE9RsHQcH-1" source="6FiVMI2iT1teIuD4gQrl-0" target="6FiVMI2iT1teIuD4gQrl-12">
          <mxGeometry width="160" relative="1" as="geometry">
            <mxPoint x="339" y="965" as="sourcePoint" />
            <mxPoint x="463" y="1005" as="targetPoint" />
          </mxGeometry>
        </mxCell>
        <mxCell id="6FiVMI2iT1teIuD4gQrl-14" value="" style="endArrow=none;html=1;entryX=0.5;entryY=0.5;entryDx=0;entryDy=0;entryPerimeter=0;exitX=1;exitY=0.5;exitDx=0;exitDy=0;" edge="1" parent="0ckDdjpmDs_dE9RsHQcH-1" source="6FiVMI2iT1teIuD4gQrl-12" target="MmjuLH4hPu6t8Vl01_Wl-0">
          <mxGeometry width="50" height="50" relative="1" as="geometry">
            <mxPoint x="563" y="1005" as="sourcePoint" />
            <mxPoint x="809" y="515" as="targetPoint" />
          </mxGeometry>
        </mxCell>
        <mxCell id="6FiVMI2iT1teIuD4gQrl-15" value="" style="endArrow=none;html=1;entryX=0.5;entryY=0.5;entryDx=0;entryDy=0;entryPerimeter=0;exitX=1;exitY=0.5;exitDx=0;exitDy=0;" edge="1" parent="0ckDdjpmDs_dE9RsHQcH-1" source="6FiVMI2iT1teIuD4gQrl-12" target="MmjuLH4hPu6t8Vl01_Wl-1">
          <mxGeometry width="50" height="50" relative="1" as="geometry">
            <mxPoint x="589" y="1040" as="sourcePoint" />
            <mxPoint x="819" y="525" as="targetPoint" />
          </mxGeometry>
        </mxCell>
      </root>
    </mxGraphModel>
  </diagram>
  <diagram id="EU4CD4vVzrzrS91qe400" name="Page-5">
    <mxGraphModel dx="2595" dy="1368" grid="1" gridSize="10" guides="1" tooltips="1" connect="1" arrows="1" fold="1" page="1" pageScale="1" pageWidth="827" pageHeight="1169" math="0" shadow="0">
      <root>
        <mxCell id="OkJ0kMNktQkxDc5KM9ti-0" />
        <mxCell id="OkJ0kMNktQkxDc5KM9ti-1" parent="OkJ0kMNktQkxDc5KM9ti-0" />
        <mxCell id="OkJ0kMNktQkxDc5KM9ti-2" value="添加商品" style="ellipse;whiteSpace=wrap;html=1;" vertex="1" parent="OkJ0kMNktQkxDc5KM9ti-1">
          <mxGeometry x="443" y="80" width="96" height="30" as="geometry" />
        </mxCell>
        <mxCell id="OkJ0kMNktQkxDc5KM9ti-3" value="查询商品" style="ellipse;whiteSpace=wrap;html=1;" vertex="1" parent="OkJ0kMNktQkxDc5KM9ti-1">
          <mxGeometry x="443" y="120" width="96" height="30" as="geometry" />
        </mxCell>
        <mxCell id="OkJ0kMNktQkxDc5KM9ti-4" value="修改商品" style="ellipse;whiteSpace=wrap;html=1;" vertex="1" parent="OkJ0kMNktQkxDc5KM9ti-1">
          <mxGeometry x="443" y="160" width="96" height="30" as="geometry" />
        </mxCell>
        <mxCell id="OkJ0kMNktQkxDc5KM9ti-5" value="删除商品" style="ellipse;whiteSpace=wrap;html=1;" vertex="1" parent="OkJ0kMNktQkxDc5KM9ti-1">
          <mxGeometry x="443" y="200" width="96" height="30" as="geometry" />
        </mxCell>
        <mxCell id="OkJ0kMNktQkxDc5KM9ti-6" value="添加商品至收藏夹" style="ellipse;whiteSpace=wrap;html=1;" vertex="1" parent="OkJ0kMNktQkxDc5KM9ti-1">
          <mxGeometry x="443" y="400" width="100" height="30" as="geometry" />
        </mxCell>
        <mxCell id="OkJ0kMNktQkxDc5KM9ti-7" value="添加商品分类" style="ellipse;whiteSpace=wrap;html=1;" vertex="1" parent="OkJ0kMNktQkxDc5KM9ti-1">
          <mxGeometry x="443" y="240" width="96" height="30" as="geometry" />
        </mxCell>
        <mxCell id="OkJ0kMNktQkxDc5KM9ti-8" value="查询商品分类" style="ellipse;whiteSpace=wrap;html=1;" vertex="1" parent="OkJ0kMNktQkxDc5KM9ti-1">
          <mxGeometry x="443" y="280" width="96" height="30" as="geometry" />
        </mxCell>
        <mxCell id="OkJ0kMNktQkxDc5KM9ti-9" value="修改商品分类" style="ellipse;whiteSpace=wrap;html=1;" vertex="1" parent="OkJ0kMNktQkxDc5KM9ti-1">
          <mxGeometry x="443" y="320" width="100" height="30" as="geometry" />
        </mxCell>
        <mxCell id="OkJ0kMNktQkxDc5KM9ti-10" value="删除商品分类" style="ellipse;whiteSpace=wrap;html=1;" vertex="1" parent="OkJ0kMNktQkxDc5KM9ti-1">
          <mxGeometry x="443" y="360" width="100" height="30" as="geometry" />
        </mxCell>
        <mxCell id="OkJ0kMNktQkxDc5KM9ti-11" value="收藏夹商品加购" style="ellipse;whiteSpace=wrap;html=1;" vertex="1" parent="OkJ0kMNktQkxDc5KM9ti-1">
          <mxGeometry x="443" y="520" width="100" height="30" as="geometry" />
        </mxCell>
        <mxCell id="OkJ0kMNktQkxDc5KM9ti-12" value="删除收藏夹商品" style="ellipse;whiteSpace=wrap;html=1;" vertex="1" parent="OkJ0kMNktQkxDc5KM9ti-1">
          <mxGeometry x="443" y="440" width="100" height="30" as="geometry" />
        </mxCell>
        <mxCell id="OkJ0kMNktQkxDc5KM9ti-13" value="查询收藏夹商品" style="ellipse;whiteSpace=wrap;html=1;" vertex="1" parent="OkJ0kMNktQkxDc5KM9ti-1">
          <mxGeometry x="443" y="480" width="100" height="30" as="geometry" />
        </mxCell>
        <mxCell id="OkJ0kMNktQkxDc5KM9ti-14" value="添加商品至购物车" style="ellipse;whiteSpace=wrap;html=1;" vertex="1" parent="OkJ0kMNktQkxDc5KM9ti-1">
          <mxGeometry x="443" y="560" width="100" height="30" as="geometry" />
        </mxCell>
        <mxCell id="OkJ0kMNktQkxDc5KM9ti-15" value="删除购物车商品" style="ellipse;whiteSpace=wrap;html=1;" vertex="1" parent="OkJ0kMNktQkxDc5KM9ti-1">
          <mxGeometry x="443" y="600" width="100" height="30" as="geometry" />
        </mxCell>
        <mxCell id="OkJ0kMNktQkxDc5KM9ti-16" value="修改加购商品信息" style="ellipse;whiteSpace=wrap;html=1;" vertex="1" parent="OkJ0kMNktQkxDc5KM9ti-1">
          <mxGeometry x="443" y="640" width="100" height="30" as="geometry" />
        </mxCell>
        <mxCell id="OkJ0kMNktQkxDc5KM9ti-17" value="结算购物车中商品" style="ellipse;whiteSpace=wrap;html=1;" vertex="1" parent="OkJ0kMNktQkxDc5KM9ti-1">
          <mxGeometry x="443" y="680" width="100" height="30" as="geometry" />
        </mxCell>
        <mxCell id="OkJ0kMNktQkxDc5KM9ti-18" value="新增订单" style="ellipse;whiteSpace=wrap;html=1;" vertex="1" parent="OkJ0kMNktQkxDc5KM9ti-1">
          <mxGeometry x="443" y="720" width="100" height="30" as="geometry" />
        </mxCell>
        <mxCell id="OkJ0kMNktQkxDc5KM9ti-19" value="查询订单" style="ellipse;whiteSpace=wrap;html=1;" vertex="1" parent="OkJ0kMNktQkxDc5KM9ti-1">
          <mxGeometry x="443" y="760" width="100" height="30" as="geometry" />
        </mxCell>
        <mxCell id="OkJ0kMNktQkxDc5KM9ti-20" value="修改订单" style="ellipse;whiteSpace=wrap;html=1;" vertex="1" parent="OkJ0kMNktQkxDc5KM9ti-1">
          <mxGeometry x="443" y="800" width="100" height="30" as="geometry" />
        </mxCell>
        <mxCell id="OkJ0kMNktQkxDc5KM9ti-21" value="删除订单" style="ellipse;whiteSpace=wrap;html=1;" vertex="1" parent="OkJ0kMNktQkxDc5KM9ti-1">
          <mxGeometry x="443" y="840" width="100" height="30" as="geometry" />
        </mxCell>
        <mxCell id="OkJ0kMNktQkxDc5KM9ti-22" value="订单支付" style="ellipse;whiteSpace=wrap;html=1;" vertex="1" parent="OkJ0kMNktQkxDc5KM9ti-1">
          <mxGeometry x="443" y="880" width="100" height="30" as="geometry" />
        </mxCell>
        <mxCell id="OkJ0kMNktQkxDc5KM9ti-23" value="订单发货" style="ellipse;whiteSpace=wrap;html=1;" vertex="1" parent="OkJ0kMNktQkxDc5KM9ti-1">
          <mxGeometry x="443" y="920" width="100" height="30" as="geometry" />
        </mxCell>
        <mxCell id="OkJ0kMNktQkxDc5KM9ti-24" value="订单收货" style="ellipse;whiteSpace=wrap;html=1;" vertex="1" parent="OkJ0kMNktQkxDc5KM9ti-1">
          <mxGeometry x="443" y="960" width="100" height="30" as="geometry" />
        </mxCell>
        <mxCell id="OkJ0kMNktQkxDc5KM9ti-25" value="添加收货地址" style="ellipse;whiteSpace=wrap;html=1;" vertex="1" parent="OkJ0kMNktQkxDc5KM9ti-1">
          <mxGeometry x="443" y="1000" width="100" height="30" as="geometry" />
        </mxCell>
        <mxCell id="OkJ0kMNktQkxDc5KM9ti-26" value="修改收货地址" style="ellipse;whiteSpace=wrap;html=1;" vertex="1" parent="OkJ0kMNktQkxDc5KM9ti-1">
          <mxGeometry x="443" y="1040" width="100" height="30" as="geometry" />
        </mxCell>
        <mxCell id="OkJ0kMNktQkxDc5KM9ti-27" value="删除收货地址" style="ellipse;whiteSpace=wrap;html=1;" vertex="1" parent="OkJ0kMNktQkxDc5KM9ti-1">
          <mxGeometry x="443" y="1080" width="100" height="30" as="geometry" />
        </mxCell>
        <mxCell id="OkJ0kMNktQkxDc5KM9ti-29" value="收藏夹管理" style="ellipse;whiteSpace=wrap;html=1;" vertex="1" parent="OkJ0kMNktQkxDc5KM9ti-1">
          <mxGeometry x="263" y="480" width="100" height="30" as="geometry" />
        </mxCell>
        <mxCell id="OkJ0kMNktQkxDc5KM9ti-30" value="商品分类管理" style="ellipse;whiteSpace=wrap;html=1;" vertex="1" parent="OkJ0kMNktQkxDc5KM9ti-1">
          <mxGeometry x="263" y="300" width="100" height="30" as="geometry" />
        </mxCell>
        <mxCell id="OkJ0kMNktQkxDc5KM9ti-31" value="商品管理" style="ellipse;whiteSpace=wrap;html=1;" vertex="1" parent="OkJ0kMNktQkxDc5KM9ti-1">
          <mxGeometry x="263" y="130" width="100" height="30" as="geometry" />
        </mxCell>
        <mxCell id="OkJ0kMNktQkxDc5KM9ti-32" value="购物车管理" style="ellipse;whiteSpace=wrap;html=1;" vertex="1" parent="OkJ0kMNktQkxDc5KM9ti-1">
          <mxGeometry x="263" y="640" width="100" height="30" as="geometry" />
        </mxCell>
        <mxCell id="OkJ0kMNktQkxDc5KM9ti-33" value="订单管理" style="ellipse;whiteSpace=wrap;html=1;" vertex="1" parent="OkJ0kMNktQkxDc5KM9ti-1">
          <mxGeometry x="263" y="850" width="100" height="30" as="geometry" />
        </mxCell>
        <mxCell id="OkJ0kMNktQkxDc5KM9ti-34" value="收货地址管理" style="ellipse;whiteSpace=wrap;html=1;" vertex="1" parent="OkJ0kMNktQkxDc5KM9ti-1">
          <mxGeometry x="263" y="1040" width="100" height="30" as="geometry" />
        </mxCell>
        <mxCell id="K0KZjNOvBoGo1_U6Q2DD-0" value="用户" style="shape=umlActor;verticalLabelPosition=bottom;verticalAlign=top;html=1;" vertex="1" parent="OkJ0kMNktQkxDc5KM9ti-1">
          <mxGeometry x="774" y="490" width="20" height="40" as="geometry" />
        </mxCell>
        <mxCell id="K0KZjNOvBoGo1_U6Q2DD-1" value="管理员" style="shape=umlActor;verticalLabelPosition=bottom;verticalAlign=top;html=1;" vertex="1" parent="OkJ0kMNktQkxDc5KM9ti-1">
          <mxGeometry x="774" y="590" width="20" height="40" as="geometry" />
        </mxCell>
        <mxCell id="K0KZjNOvBoGo1_U6Q2DD-2" value="商城系统" style="ellipse;whiteSpace=wrap;html=1;" vertex="1" parent="OkJ0kMNktQkxDc5KM9ti-1">
          <mxGeometry x="34" y="544" width="100" height="30" as="geometry" />
        </mxCell>
        <mxCell id="3XImW0MFOwX3jlocCDl--0" value="《包含》" style="endArrow=open;endSize=12;dashed=1;html=1;entryX=0;entryY=0.5;entryDx=0;entryDy=0;exitX=1;exitY=0.5;exitDx=0;exitDy=0;" edge="1" parent="OkJ0kMNktQkxDc5KM9ti-1" source="K0KZjNOvBoGo1_U6Q2DD-2" target="OkJ0kMNktQkxDc5KM9ti-31">
          <mxGeometry width="160" relative="1" as="geometry">
            <mxPoint x="163" y="560" as="sourcePoint" />
            <mxPoint x="283" y="210" as="targetPoint" />
          </mxGeometry>
        </mxCell>
        <mxCell id="3XImW0MFOwX3jlocCDl--1" value="《包含》" style="endArrow=open;endSize=12;dashed=1;html=1;entryX=0;entryY=0.5;entryDx=0;entryDy=0;exitX=1;exitY=0.5;exitDx=0;exitDy=0;" edge="1" parent="OkJ0kMNktQkxDc5KM9ti-1" source="K0KZjNOvBoGo1_U6Q2DD-2" target="OkJ0kMNktQkxDc5KM9ti-30">
          <mxGeometry width="160" relative="1" as="geometry">
            <mxPoint x="163" y="544.9999999999999" as="sourcePoint" />
            <mxPoint x="273.0000000000001" y="155" as="targetPoint" />
          </mxGeometry>
        </mxCell>
        <mxCell id="3XImW0MFOwX3jlocCDl--2" value="《包含》" style="endArrow=open;endSize=12;dashed=1;html=1;entryX=0;entryY=0.5;entryDx=0;entryDy=0;exitX=1;exitY=0.5;exitDx=0;exitDy=0;" edge="1" parent="OkJ0kMNktQkxDc5KM9ti-1" source="K0KZjNOvBoGo1_U6Q2DD-2" target="OkJ0kMNktQkxDc5KM9ti-29">
          <mxGeometry width="160" relative="1" as="geometry">
            <mxPoint x="163" y="544.9999999999999" as="sourcePoint" />
            <mxPoint x="273.0000000000001" y="325" as="targetPoint" />
          </mxGeometry>
        </mxCell>
        <mxCell id="3XImW0MFOwX3jlocCDl--3" value="《包含》" style="endArrow=open;endSize=12;dashed=1;html=1;entryX=0;entryY=0.5;entryDx=0;entryDy=0;exitX=1;exitY=0.5;exitDx=0;exitDy=0;" edge="1" parent="OkJ0kMNktQkxDc5KM9ti-1" source="K0KZjNOvBoGo1_U6Q2DD-2" target="OkJ0kMNktQkxDc5KM9ti-32">
          <mxGeometry width="160" relative="1" as="geometry">
            <mxPoint x="163" y="544.9999999999999" as="sourcePoint" />
            <mxPoint x="273.0000000000001" y="504.9999999999999" as="targetPoint" />
          </mxGeometry>
        </mxCell>
        <mxCell id="3XImW0MFOwX3jlocCDl--4" value="《包含》" style="endArrow=open;endSize=12;dashed=1;html=1;entryX=0;entryY=0.5;entryDx=0;entryDy=0;exitX=1;exitY=0.5;exitDx=0;exitDy=0;" edge="1" parent="OkJ0kMNktQkxDc5KM9ti-1" source="K0KZjNOvBoGo1_U6Q2DD-2" target="OkJ0kMNktQkxDc5KM9ti-33">
          <mxGeometry width="160" relative="1" as="geometry">
            <mxPoint x="153" y="530" as="sourcePoint" />
            <mxPoint x="273.0000000000001" y="665" as="targetPoint" />
          </mxGeometry>
        </mxCell>
        <mxCell id="3XImW0MFOwX3jlocCDl--5" value="《包含》" style="endArrow=open;endSize=12;dashed=1;html=1;entryX=0;entryY=0.5;entryDx=0;entryDy=0;exitX=1;exitY=0.5;exitDx=0;exitDy=0;" edge="1" parent="OkJ0kMNktQkxDc5KM9ti-1" source="K0KZjNOvBoGo1_U6Q2DD-2" target="OkJ0kMNktQkxDc5KM9ti-34">
          <mxGeometry width="160" relative="1" as="geometry">
            <mxPoint x="163" y="545" as="sourcePoint" />
            <mxPoint x="273" y="875" as="targetPoint" />
          </mxGeometry>
        </mxCell>
        <mxCell id="3XImW0MFOwX3jlocCDl--6" value="《包含》" style="endArrow=open;endSize=12;dashed=1;html=1;entryX=0;entryY=0.5;entryDx=0;entryDy=0;exitX=1;exitY=0.5;exitDx=0;exitDy=0;" edge="1" parent="OkJ0kMNktQkxDc5KM9ti-1" source="OkJ0kMNktQkxDc5KM9ti-29" target="OkJ0kMNktQkxDc5KM9ti-6">
          <mxGeometry width="160" relative="1" as="geometry">
            <mxPoint x="163" y="545" as="sourcePoint" />
            <mxPoint x="273" y="155" as="targetPoint" />
          </mxGeometry>
        </mxCell>
        <mxCell id="3XImW0MFOwX3jlocCDl--7" value="《包含》" style="endArrow=open;endSize=12;dashed=1;html=1;entryX=0;entryY=0.5;entryDx=0;entryDy=0;exitX=1;exitY=0.5;exitDx=0;exitDy=0;" edge="1" parent="OkJ0kMNktQkxDc5KM9ti-1" source="OkJ0kMNktQkxDc5KM9ti-29" target="OkJ0kMNktQkxDc5KM9ti-12">
          <mxGeometry width="160" relative="1" as="geometry">
            <mxPoint x="373" y="505" as="sourcePoint" />
            <mxPoint x="453" y="425" as="targetPoint" />
          </mxGeometry>
        </mxCell>
        <mxCell id="3XImW0MFOwX3jlocCDl--8" value="《包含》" style="endArrow=open;endSize=12;dashed=1;html=1;entryX=0;entryY=0.5;entryDx=0;entryDy=0;exitX=1;exitY=0.5;exitDx=0;exitDy=0;" edge="1" parent="OkJ0kMNktQkxDc5KM9ti-1" source="OkJ0kMNktQkxDc5KM9ti-29" target="OkJ0kMNktQkxDc5KM9ti-13">
          <mxGeometry width="160" relative="1" as="geometry">
            <mxPoint x="373" y="505" as="sourcePoint" />
            <mxPoint x="453" y="465" as="targetPoint" />
          </mxGeometry>
        </mxCell>
        <mxCell id="3XImW0MFOwX3jlocCDl--9" value="《包含》" style="endArrow=open;endSize=12;dashed=1;html=1;entryX=0;entryY=0.5;entryDx=0;entryDy=0;exitX=1;exitY=0.5;exitDx=0;exitDy=0;" edge="1" parent="OkJ0kMNktQkxDc5KM9ti-1" source="OkJ0kMNktQkxDc5KM9ti-29" target="OkJ0kMNktQkxDc5KM9ti-11">
          <mxGeometry width="160" relative="1" as="geometry">
            <mxPoint x="373" y="505" as="sourcePoint" />
            <mxPoint x="453" y="505" as="targetPoint" />
          </mxGeometry>
        </mxCell>
        <mxCell id="3XImW0MFOwX3jlocCDl--10" value="《包含》" style="endArrow=open;endSize=12;dashed=1;html=1;entryX=0;entryY=0.5;entryDx=0;entryDy=0;exitX=1;exitY=0.5;exitDx=0;exitDy=0;" edge="1" parent="OkJ0kMNktQkxDc5KM9ti-1" source="OkJ0kMNktQkxDc5KM9ti-32" target="OkJ0kMNktQkxDc5KM9ti-14">
          <mxGeometry width="160" relative="1" as="geometry">
            <mxPoint x="373" y="505" as="sourcePoint" />
            <mxPoint x="453" y="545" as="targetPoint" />
          </mxGeometry>
        </mxCell>
        <mxCell id="3XImW0MFOwX3jlocCDl--11" value="《包含》" style="endArrow=open;endSize=12;dashed=1;html=1;entryX=0;entryY=0.5;entryDx=0;entryDy=0;exitX=1;exitY=0.5;exitDx=0;exitDy=0;" edge="1" parent="OkJ0kMNktQkxDc5KM9ti-1" source="OkJ0kMNktQkxDc5KM9ti-32" target="OkJ0kMNktQkxDc5KM9ti-15">
          <mxGeometry width="160" relative="1" as="geometry">
            <mxPoint x="373" y="665" as="sourcePoint" />
            <mxPoint x="453" y="585" as="targetPoint" />
          </mxGeometry>
        </mxCell>
        <mxCell id="3XImW0MFOwX3jlocCDl--12" value="《包含》" style="endArrow=open;endSize=12;dashed=1;html=1;entryX=0;entryY=0.5;entryDx=0;entryDy=0;exitX=1;exitY=0.5;exitDx=0;exitDy=0;" edge="1" parent="OkJ0kMNktQkxDc5KM9ti-1" source="OkJ0kMNktQkxDc5KM9ti-32" target="OkJ0kMNktQkxDc5KM9ti-16">
          <mxGeometry width="160" relative="1" as="geometry">
            <mxPoint x="373" y="665" as="sourcePoint" />
            <mxPoint x="453" y="625" as="targetPoint" />
          </mxGeometry>
        </mxCell>
        <mxCell id="3XImW0MFOwX3jlocCDl--13" value="《包含》" style="endArrow=open;endSize=12;dashed=1;html=1;entryX=0;entryY=0.5;entryDx=0;entryDy=0;exitX=1;exitY=0.5;exitDx=0;exitDy=0;" edge="1" parent="OkJ0kMNktQkxDc5KM9ti-1" source="OkJ0kMNktQkxDc5KM9ti-32" target="OkJ0kMNktQkxDc5KM9ti-17">
          <mxGeometry width="160" relative="1" as="geometry">
            <mxPoint x="373" y="665" as="sourcePoint" />
            <mxPoint x="453" y="665" as="targetPoint" />
          </mxGeometry>
        </mxCell>
        <mxCell id="3XImW0MFOwX3jlocCDl--14" value="《包含》" style="endArrow=open;endSize=12;dashed=1;html=1;entryX=0;entryY=0.5;entryDx=0;entryDy=0;exitX=1;exitY=0.5;exitDx=0;exitDy=0;" edge="1" parent="OkJ0kMNktQkxDc5KM9ti-1" source="OkJ0kMNktQkxDc5KM9ti-33" target="OkJ0kMNktQkxDc5KM9ti-18">
          <mxGeometry width="160" relative="1" as="geometry">
            <mxPoint x="373" y="665" as="sourcePoint" />
            <mxPoint x="453" y="705" as="targetPoint" />
          </mxGeometry>
        </mxCell>
        <mxCell id="3XImW0MFOwX3jlocCDl--15" value="《包含》" style="endArrow=open;endSize=12;dashed=1;html=1;entryX=0;entryY=0.5;entryDx=0;entryDy=0;exitX=1;exitY=0.5;exitDx=0;exitDy=0;" edge="1" parent="OkJ0kMNktQkxDc5KM9ti-1" source="OkJ0kMNktQkxDc5KM9ti-33" target="OkJ0kMNktQkxDc5KM9ti-19">
          <mxGeometry width="160" relative="1" as="geometry">
            <mxPoint x="373" y="875" as="sourcePoint" />
            <mxPoint x="453" y="745" as="targetPoint" />
          </mxGeometry>
        </mxCell>
        <mxCell id="3XImW0MFOwX3jlocCDl--16" value="《包含》" style="endArrow=open;endSize=12;dashed=1;html=1;entryX=0;entryY=0.5;entryDx=0;entryDy=0;exitX=1;exitY=0.5;exitDx=0;exitDy=0;" edge="1" parent="OkJ0kMNktQkxDc5KM9ti-1" source="OkJ0kMNktQkxDc5KM9ti-33" target="OkJ0kMNktQkxDc5KM9ti-20">
          <mxGeometry width="160" relative="1" as="geometry">
            <mxPoint x="373" y="875" as="sourcePoint" />
            <mxPoint x="453" y="785" as="targetPoint" />
          </mxGeometry>
        </mxCell>
        <mxCell id="3XImW0MFOwX3jlocCDl--17" value="《包含》" style="endArrow=open;endSize=12;dashed=1;html=1;entryX=0;entryY=0.5;entryDx=0;entryDy=0;exitX=1;exitY=0.5;exitDx=0;exitDy=0;" edge="1" parent="OkJ0kMNktQkxDc5KM9ti-1" source="OkJ0kMNktQkxDc5KM9ti-33" target="OkJ0kMNktQkxDc5KM9ti-21">
          <mxGeometry width="160" relative="1" as="geometry">
            <mxPoint x="373" y="875" as="sourcePoint" />
            <mxPoint x="453" y="825" as="targetPoint" />
          </mxGeometry>
        </mxCell>
        <mxCell id="3XImW0MFOwX3jlocCDl--18" value="《包含》" style="endArrow=open;endSize=12;dashed=1;html=1;entryX=0;entryY=0.5;entryDx=0;entryDy=0;exitX=1;exitY=0.5;exitDx=0;exitDy=0;" edge="1" parent="OkJ0kMNktQkxDc5KM9ti-1" source="OkJ0kMNktQkxDc5KM9ti-33" target="OkJ0kMNktQkxDc5KM9ti-22">
          <mxGeometry width="160" relative="1" as="geometry">
            <mxPoint x="373" y="875" as="sourcePoint" />
            <mxPoint x="453" y="865" as="targetPoint" />
          </mxGeometry>
        </mxCell>
        <mxCell id="3XImW0MFOwX3jlocCDl--19" value="《包含》" style="endArrow=open;endSize=12;dashed=1;html=1;entryX=0;entryY=0.5;entryDx=0;entryDy=0;exitX=1;exitY=0.5;exitDx=0;exitDy=0;" edge="1" parent="OkJ0kMNktQkxDc5KM9ti-1" source="OkJ0kMNktQkxDc5KM9ti-33" target="OkJ0kMNktQkxDc5KM9ti-23">
          <mxGeometry width="160" relative="1" as="geometry">
            <mxPoint x="373" y="875" as="sourcePoint" />
            <mxPoint x="453" y="905" as="targetPoint" />
          </mxGeometry>
        </mxCell>
        <mxCell id="3XImW0MFOwX3jlocCDl--20" value="《包含》" style="endArrow=open;endSize=12;dashed=1;html=1;entryX=0;entryY=0.5;entryDx=0;entryDy=0;exitX=1;exitY=0.5;exitDx=0;exitDy=0;" edge="1" parent="OkJ0kMNktQkxDc5KM9ti-1" source="OkJ0kMNktQkxDc5KM9ti-33" target="OkJ0kMNktQkxDc5KM9ti-24">
          <mxGeometry width="160" relative="1" as="geometry">
            <mxPoint x="373" y="875" as="sourcePoint" />
            <mxPoint x="453" y="945" as="targetPoint" />
          </mxGeometry>
        </mxCell>
        <mxCell id="3XImW0MFOwX3jlocCDl--21" value="《包含》" style="endArrow=open;endSize=12;dashed=1;html=1;entryX=0;entryY=0.5;entryDx=0;entryDy=0;exitX=1;exitY=0.5;exitDx=0;exitDy=0;" edge="1" parent="OkJ0kMNktQkxDc5KM9ti-1" source="OkJ0kMNktQkxDc5KM9ti-34" target="OkJ0kMNktQkxDc5KM9ti-25">
          <mxGeometry width="160" relative="1" as="geometry">
            <mxPoint x="373" y="875" as="sourcePoint" />
            <mxPoint x="453" y="985" as="targetPoint" />
          </mxGeometry>
        </mxCell>
        <mxCell id="3XImW0MFOwX3jlocCDl--22" value="《包含》" style="endArrow=open;endSize=12;dashed=1;html=1;entryX=0;entryY=0.5;entryDx=0;entryDy=0;exitX=1;exitY=0.5;exitDx=0;exitDy=0;" edge="1" parent="OkJ0kMNktQkxDc5KM9ti-1" source="OkJ0kMNktQkxDc5KM9ti-34" target="OkJ0kMNktQkxDc5KM9ti-26">
          <mxGeometry width="160" relative="1" as="geometry">
            <mxPoint x="373" y="1065" as="sourcePoint" />
            <mxPoint x="453" y="1025" as="targetPoint" />
          </mxGeometry>
        </mxCell>
        <mxCell id="3XImW0MFOwX3jlocCDl--23" value="《包含》" style="endArrow=open;endSize=12;dashed=1;html=1;entryX=0;entryY=0.5;entryDx=0;entryDy=0;exitX=1;exitY=0.5;exitDx=0;exitDy=0;" edge="1" parent="OkJ0kMNktQkxDc5KM9ti-1" source="OkJ0kMNktQkxDc5KM9ti-34" target="OkJ0kMNktQkxDc5KM9ti-27">
          <mxGeometry width="160" relative="1" as="geometry">
            <mxPoint x="373" y="1065" as="sourcePoint" />
            <mxPoint x="453" y="1065" as="targetPoint" />
          </mxGeometry>
        </mxCell>
        <mxCell id="3XImW0MFOwX3jlocCDl--24" value="《包含》" style="endArrow=open;endSize=12;dashed=1;html=1;entryX=0;entryY=0.5;entryDx=0;entryDy=0;exitX=1;exitY=0.5;exitDx=0;exitDy=0;" edge="1" parent="OkJ0kMNktQkxDc5KM9ti-1" source="OkJ0kMNktQkxDc5KM9ti-30" target="OkJ0kMNktQkxDc5KM9ti-8">
          <mxGeometry width="160" relative="1" as="geometry">
            <mxPoint x="343" y="390" as="sourcePoint" />
            <mxPoint x="423" y="310" as="targetPoint" />
          </mxGeometry>
        </mxCell>
        <mxCell id="3XImW0MFOwX3jlocCDl--25" value="《包含》" style="endArrow=open;endSize=12;dashed=1;html=1;entryX=0;entryY=0.5;entryDx=0;entryDy=0;exitX=1;exitY=0.5;exitDx=0;exitDy=0;" edge="1" parent="OkJ0kMNktQkxDc5KM9ti-1" source="OkJ0kMNktQkxDc5KM9ti-30" target="OkJ0kMNktQkxDc5KM9ti-9">
          <mxGeometry width="160" relative="1" as="geometry">
            <mxPoint x="373" y="325" as="sourcePoint" />
            <mxPoint x="453" y="305" as="targetPoint" />
          </mxGeometry>
        </mxCell>
        <mxCell id="3XImW0MFOwX3jlocCDl--26" value="《包含》" style="endArrow=open;endSize=12;dashed=1;html=1;entryX=0;entryY=0.5;entryDx=0;entryDy=0;exitX=1;exitY=0.5;exitDx=0;exitDy=0;" edge="1" parent="OkJ0kMNktQkxDc5KM9ti-1" source="OkJ0kMNktQkxDc5KM9ti-30" target="OkJ0kMNktQkxDc5KM9ti-10">
          <mxGeometry width="160" relative="1" as="geometry">
            <mxPoint x="373" y="325" as="sourcePoint" />
            <mxPoint x="453" y="345" as="targetPoint" />
          </mxGeometry>
        </mxCell>
        <mxCell id="3XImW0MFOwX3jlocCDl--27" value="《包含》" style="endArrow=open;endSize=12;dashed=1;html=1;entryX=0;entryY=0.5;entryDx=0;entryDy=0;exitX=1;exitY=0.5;exitDx=0;exitDy=0;" edge="1" parent="OkJ0kMNktQkxDc5KM9ti-1" source="OkJ0kMNktQkxDc5KM9ti-30" target="OkJ0kMNktQkxDc5KM9ti-7">
          <mxGeometry width="160" relative="1" as="geometry">
            <mxPoint x="373" y="325" as="sourcePoint" />
            <mxPoint x="453" y="305" as="targetPoint" />
          </mxGeometry>
        </mxCell>
        <mxCell id="3XImW0MFOwX3jlocCDl--28" value="《包含》" style="endArrow=open;endSize=12;dashed=1;html=1;entryX=0;entryY=0.5;entryDx=0;entryDy=0;exitX=1;exitY=0.5;exitDx=0;exitDy=0;" edge="1" parent="OkJ0kMNktQkxDc5KM9ti-1" source="OkJ0kMNktQkxDc5KM9ti-31" target="OkJ0kMNktQkxDc5KM9ti-5">
          <mxGeometry width="160" relative="1" as="geometry">
            <mxPoint x="373" y="325" as="sourcePoint" />
            <mxPoint x="453" y="265" as="targetPoint" />
          </mxGeometry>
        </mxCell>
        <mxCell id="3XImW0MFOwX3jlocCDl--29" value="《包含》" style="endArrow=open;endSize=12;dashed=1;html=1;entryX=0;entryY=0.5;entryDx=0;entryDy=0;exitX=1;exitY=0.5;exitDx=0;exitDy=0;" edge="1" parent="OkJ0kMNktQkxDc5KM9ti-1" source="OkJ0kMNktQkxDc5KM9ti-31" target="OkJ0kMNktQkxDc5KM9ti-4">
          <mxGeometry width="160" relative="1" as="geometry">
            <mxPoint x="373" y="155" as="sourcePoint" />
            <mxPoint x="453" y="225" as="targetPoint" />
          </mxGeometry>
        </mxCell>
        <mxCell id="3XImW0MFOwX3jlocCDl--30" value="《包含》" style="endArrow=open;endSize=12;dashed=1;html=1;entryX=0;entryY=0.5;entryDx=0;entryDy=0;exitX=1;exitY=0.5;exitDx=0;exitDy=0;" edge="1" parent="OkJ0kMNktQkxDc5KM9ti-1" source="OkJ0kMNktQkxDc5KM9ti-31" target="OkJ0kMNktQkxDc5KM9ti-2">
          <mxGeometry width="160" relative="1" as="geometry">
            <mxPoint x="373" y="155" as="sourcePoint" />
            <mxPoint x="453" y="185" as="targetPoint" />
          </mxGeometry>
        </mxCell>
        <mxCell id="3XImW0MFOwX3jlocCDl--31" value="《包含》" style="endArrow=open;endSize=12;dashed=1;html=1;entryX=0;entryY=0.5;entryDx=0;entryDy=0;exitX=1;exitY=0.5;exitDx=0;exitDy=0;" edge="1" parent="OkJ0kMNktQkxDc5KM9ti-1" source="OkJ0kMNktQkxDc5KM9ti-31" target="OkJ0kMNktQkxDc5KM9ti-3">
          <mxGeometry width="160" relative="1" as="geometry">
            <mxPoint x="373" y="155" as="sourcePoint" />
            <mxPoint x="453" y="105" as="targetPoint" />
          </mxGeometry>
        </mxCell>
        <mxCell id="3XImW0MFOwX3jlocCDl--32" value="" style="endArrow=none;html=1;entryX=0.5;entryY=0.5;entryDx=0;entryDy=0;entryPerimeter=0;exitX=1;exitY=0.5;exitDx=0;exitDy=0;" edge="1" parent="OkJ0kMNktQkxDc5KM9ti-1" source="OkJ0kMNktQkxDc5KM9ti-3" target="K0KZjNOvBoGo1_U6Q2DD-0">
          <mxGeometry width="50" height="50" relative="1" as="geometry">
            <mxPoint x="533" y="340" as="sourcePoint" />
            <mxPoint x="583" y="290" as="targetPoint" />
          </mxGeometry>
        </mxCell>
        <mxCell id="3XImW0MFOwX3jlocCDl--33" value="" style="endArrow=none;html=1;entryX=0.5;entryY=0.5;entryDx=0;entryDy=0;entryPerimeter=0;exitX=1;exitY=0.5;exitDx=0;exitDy=0;" edge="1" parent="OkJ0kMNktQkxDc5KM9ti-1" source="OkJ0kMNktQkxDc5KM9ti-8" target="K0KZjNOvBoGo1_U6Q2DD-0">
          <mxGeometry width="50" height="50" relative="1" as="geometry">
            <mxPoint x="549" y="145" as="sourcePoint" />
            <mxPoint x="763" y="350" as="targetPoint" />
          </mxGeometry>
        </mxCell>
        <mxCell id="3XImW0MFOwX3jlocCDl--34" value="" style="endArrow=none;html=1;exitX=1;exitY=0.5;exitDx=0;exitDy=0;entryX=0.5;entryY=0.5;entryDx=0;entryDy=0;entryPerimeter=0;" edge="1" parent="OkJ0kMNktQkxDc5KM9ti-1" source="OkJ0kMNktQkxDc5KM9ti-6" target="K0KZjNOvBoGo1_U6Q2DD-0">
          <mxGeometry width="50" height="50" relative="1" as="geometry">
            <mxPoint x="549" y="305" as="sourcePoint" />
            <mxPoint x="753" y="380" as="targetPoint" />
          </mxGeometry>
        </mxCell>
        <mxCell id="3XImW0MFOwX3jlocCDl--35" value="" style="endArrow=none;html=1;exitX=1;exitY=0.5;exitDx=0;exitDy=0;entryX=0.5;entryY=0.5;entryDx=0;entryDy=0;entryPerimeter=0;" edge="1" parent="OkJ0kMNktQkxDc5KM9ti-1" source="OkJ0kMNktQkxDc5KM9ti-12" target="K0KZjNOvBoGo1_U6Q2DD-0">
          <mxGeometry width="50" height="50" relative="1" as="geometry">
            <mxPoint x="553" y="425" as="sourcePoint" />
            <mxPoint x="763" y="350" as="targetPoint" />
          </mxGeometry>
        </mxCell>
        <mxCell id="3XImW0MFOwX3jlocCDl--36" value="" style="endArrow=none;html=1;exitX=1;exitY=0.5;exitDx=0;exitDy=0;entryX=0.5;entryY=0.5;entryDx=0;entryDy=0;entryPerimeter=0;" edge="1" parent="OkJ0kMNktQkxDc5KM9ti-1" source="OkJ0kMNktQkxDc5KM9ti-13" target="K0KZjNOvBoGo1_U6Q2DD-0">
          <mxGeometry width="50" height="50" relative="1" as="geometry">
            <mxPoint x="553" y="465" as="sourcePoint" />
            <mxPoint x="763" y="350" as="targetPoint" />
          </mxGeometry>
        </mxCell>
        <mxCell id="3XImW0MFOwX3jlocCDl--37" value="" style="endArrow=none;html=1;exitX=1;exitY=0.5;exitDx=0;exitDy=0;entryX=0.5;entryY=0.5;entryDx=0;entryDy=0;entryPerimeter=0;" edge="1" parent="OkJ0kMNktQkxDc5KM9ti-1" source="OkJ0kMNktQkxDc5KM9ti-11" target="K0KZjNOvBoGo1_U6Q2DD-0">
          <mxGeometry width="50" height="50" relative="1" as="geometry">
            <mxPoint x="553" y="504.9999999999999" as="sourcePoint" />
            <mxPoint x="763" y="349.9999999999999" as="targetPoint" />
          </mxGeometry>
        </mxCell>
        <mxCell id="3XImW0MFOwX3jlocCDl--38" value="" style="endArrow=none;html=1;exitX=1;exitY=0.5;exitDx=0;exitDy=0;entryX=0.5;entryY=0.5;entryDx=0;entryDy=0;entryPerimeter=0;" edge="1" parent="OkJ0kMNktQkxDc5KM9ti-1" source="OkJ0kMNktQkxDc5KM9ti-14" target="K0KZjNOvBoGo1_U6Q2DD-0">
          <mxGeometry width="50" height="50" relative="1" as="geometry">
            <mxPoint x="553" y="544.9999999999999" as="sourcePoint" />
            <mxPoint x="763" y="349.9999999999999" as="targetPoint" />
          </mxGeometry>
        </mxCell>
        <mxCell id="3XImW0MFOwX3jlocCDl--39" value="" style="endArrow=none;html=1;exitX=1;exitY=0.5;exitDx=0;exitDy=0;entryX=0.5;entryY=0.5;entryDx=0;entryDy=0;entryPerimeter=0;" edge="1" parent="OkJ0kMNktQkxDc5KM9ti-1" source="OkJ0kMNktQkxDc5KM9ti-15" target="K0KZjNOvBoGo1_U6Q2DD-0">
          <mxGeometry width="50" height="50" relative="1" as="geometry">
            <mxPoint x="553" y="584.9999999999999" as="sourcePoint" />
            <mxPoint x="763" y="349.9999999999999" as="targetPoint" />
          </mxGeometry>
        </mxCell>
        <mxCell id="3XImW0MFOwX3jlocCDl--40" value="" style="endArrow=none;html=1;exitX=1;exitY=0.5;exitDx=0;exitDy=0;entryX=0.5;entryY=0.5;entryDx=0;entryDy=0;entryPerimeter=0;" edge="1" parent="OkJ0kMNktQkxDc5KM9ti-1" source="OkJ0kMNktQkxDc5KM9ti-16" target="K0KZjNOvBoGo1_U6Q2DD-0">
          <mxGeometry width="50" height="50" relative="1" as="geometry">
            <mxPoint x="553" y="624.9999999999999" as="sourcePoint" />
            <mxPoint x="763" y="349.9999999999999" as="targetPoint" />
          </mxGeometry>
        </mxCell>
        <mxCell id="3XImW0MFOwX3jlocCDl--41" value="" style="endArrow=none;html=1;exitX=1;exitY=0.5;exitDx=0;exitDy=0;entryX=0.5;entryY=0.5;entryDx=0;entryDy=0;entryPerimeter=0;" edge="1" parent="OkJ0kMNktQkxDc5KM9ti-1" source="OkJ0kMNktQkxDc5KM9ti-17" target="K0KZjNOvBoGo1_U6Q2DD-0">
          <mxGeometry width="50" height="50" relative="1" as="geometry">
            <mxPoint x="553" y="665" as="sourcePoint" />
            <mxPoint x="763" y="359.9999999999999" as="targetPoint" />
          </mxGeometry>
        </mxCell>
        <mxCell id="3XImW0MFOwX3jlocCDl--42" value="" style="endArrow=none;html=1;exitX=1;exitY=0.5;exitDx=0;exitDy=0;entryX=0.5;entryY=0.5;entryDx=0;entryDy=0;entryPerimeter=0;" edge="1" parent="OkJ0kMNktQkxDc5KM9ti-1" source="OkJ0kMNktQkxDc5KM9ti-18" target="K0KZjNOvBoGo1_U6Q2DD-0">
          <mxGeometry width="50" height="50" relative="1" as="geometry">
            <mxPoint x="553" y="705" as="sourcePoint" />
            <mxPoint x="763" y="359.9999999999999" as="targetPoint" />
          </mxGeometry>
        </mxCell>
        <mxCell id="3XImW0MFOwX3jlocCDl--43" value="" style="endArrow=none;html=1;exitX=1;exitY=0.5;exitDx=0;exitDy=0;entryX=0.5;entryY=0.5;entryDx=0;entryDy=0;entryPerimeter=0;" edge="1" parent="OkJ0kMNktQkxDc5KM9ti-1" source="OkJ0kMNktQkxDc5KM9ti-19" target="K0KZjNOvBoGo1_U6Q2DD-0">
          <mxGeometry width="50" height="50" relative="1" as="geometry">
            <mxPoint x="553" y="745" as="sourcePoint" />
            <mxPoint x="763" y="359.9999999999999" as="targetPoint" />
          </mxGeometry>
        </mxCell>
        <mxCell id="3XImW0MFOwX3jlocCDl--44" value="" style="endArrow=none;html=1;exitX=1;exitY=0.5;exitDx=0;exitDy=0;entryX=0.5;entryY=0.5;entryDx=0;entryDy=0;entryPerimeter=0;" edge="1" parent="OkJ0kMNktQkxDc5KM9ti-1" source="OkJ0kMNktQkxDc5KM9ti-20" target="K0KZjNOvBoGo1_U6Q2DD-0">
          <mxGeometry width="50" height="50" relative="1" as="geometry">
            <mxPoint x="553.6000000000001" y="780.8" as="sourcePoint" />
            <mxPoint x="763" y="359.9999999999999" as="targetPoint" />
          </mxGeometry>
        </mxCell>
        <mxCell id="3XImW0MFOwX3jlocCDl--45" value="" style="endArrow=none;html=1;exitX=1;exitY=0.5;exitDx=0;exitDy=0;entryX=0.5;entryY=0.5;entryDx=0;entryDy=0;entryPerimeter=0;" edge="1" parent="OkJ0kMNktQkxDc5KM9ti-1" source="OkJ0kMNktQkxDc5KM9ti-21" target="K0KZjNOvBoGo1_U6Q2DD-0">
          <mxGeometry width="50" height="50" relative="1" as="geometry">
            <mxPoint x="553" y="825" as="sourcePoint" />
            <mxPoint x="763" y="359.9999999999999" as="targetPoint" />
          </mxGeometry>
        </mxCell>
        <mxCell id="3XImW0MFOwX3jlocCDl--46" value="" style="endArrow=none;html=1;exitX=1;exitY=0.5;exitDx=0;exitDy=0;entryX=0.5;entryY=0.5;entryDx=0;entryDy=0;entryPerimeter=0;" edge="1" parent="OkJ0kMNktQkxDc5KM9ti-1" source="OkJ0kMNktQkxDc5KM9ti-22" target="K0KZjNOvBoGo1_U6Q2DD-0">
          <mxGeometry width="50" height="50" relative="1" as="geometry">
            <mxPoint x="553" y="865" as="sourcePoint" />
            <mxPoint x="763" y="359.9999999999999" as="targetPoint" />
          </mxGeometry>
        </mxCell>
        <mxCell id="3XImW0MFOwX3jlocCDl--47" value="" style="endArrow=none;html=1;exitX=1;exitY=0.5;exitDx=0;exitDy=0;entryX=0.5;entryY=0.5;entryDx=0;entryDy=0;entryPerimeter=0;" edge="1" parent="OkJ0kMNktQkxDc5KM9ti-1" source="OkJ0kMNktQkxDc5KM9ti-24" target="K0KZjNOvBoGo1_U6Q2DD-0">
          <mxGeometry width="50" height="50" relative="1" as="geometry">
            <mxPoint x="553" y="905" as="sourcePoint" />
            <mxPoint x="763" y="359.9999999999999" as="targetPoint" />
          </mxGeometry>
        </mxCell>
        <mxCell id="3XImW0MFOwX3jlocCDl--48" value="" style="endArrow=none;html=1;exitX=1;exitY=0.5;exitDx=0;exitDy=0;entryX=0.5;entryY=0.5;entryDx=0;entryDy=0;entryPerimeter=0;" edge="1" parent="OkJ0kMNktQkxDc5KM9ti-1" source="OkJ0kMNktQkxDc5KM9ti-25" target="K0KZjNOvBoGo1_U6Q2DD-0">
          <mxGeometry width="50" height="50" relative="1" as="geometry">
            <mxPoint x="553" y="985" as="sourcePoint" />
            <mxPoint x="763" y="359.9999999999999" as="targetPoint" />
          </mxGeometry>
        </mxCell>
        <mxCell id="3XImW0MFOwX3jlocCDl--49" value="" style="endArrow=none;html=1;exitX=1;exitY=0.5;exitDx=0;exitDy=0;entryX=0.5;entryY=0.5;entryDx=0;entryDy=0;entryPerimeter=0;" edge="1" parent="OkJ0kMNktQkxDc5KM9ti-1" source="OkJ0kMNktQkxDc5KM9ti-26" target="K0KZjNOvBoGo1_U6Q2DD-0">
          <mxGeometry width="50" height="50" relative="1" as="geometry">
            <mxPoint x="553" y="1025" as="sourcePoint" />
            <mxPoint x="773" y="369.9999999999999" as="targetPoint" />
          </mxGeometry>
        </mxCell>
        <mxCell id="3XImW0MFOwX3jlocCDl--50" value="" style="endArrow=none;html=1;exitX=1;exitY=0.5;exitDx=0;exitDy=0;entryX=0.5;entryY=0.5;entryDx=0;entryDy=0;entryPerimeter=0;" edge="1" parent="OkJ0kMNktQkxDc5KM9ti-1" source="OkJ0kMNktQkxDc5KM9ti-27" target="K0KZjNOvBoGo1_U6Q2DD-0">
          <mxGeometry width="50" height="50" relative="1" as="geometry">
            <mxPoint x="553" y="1065" as="sourcePoint" />
            <mxPoint x="783" y="379.9999999999999" as="targetPoint" />
          </mxGeometry>
        </mxCell>
        <mxCell id="3XImW0MFOwX3jlocCDl--51" value="" style="endArrow=none;html=1;entryX=0.5;entryY=0.5;entryDx=0;entryDy=0;entryPerimeter=0;exitX=1;exitY=0.5;exitDx=0;exitDy=0;" edge="1" parent="OkJ0kMNktQkxDc5KM9ti-1" source="OkJ0kMNktQkxDc5KM9ti-2" target="K0KZjNOvBoGo1_U6Q2DD-1">
          <mxGeometry width="50" height="50" relative="1" as="geometry">
            <mxPoint x="549" y="145" as="sourcePoint" />
            <mxPoint x="763" y="360" as="targetPoint" />
          </mxGeometry>
        </mxCell>
        <mxCell id="3XImW0MFOwX3jlocCDl--52" value="" style="endArrow=none;html=1;entryX=0.5;entryY=0.5;entryDx=0;entryDy=0;entryPerimeter=0;exitX=1;exitY=0.5;exitDx=0;exitDy=0;" edge="1" parent="OkJ0kMNktQkxDc5KM9ti-1" source="OkJ0kMNktQkxDc5KM9ti-4" target="K0KZjNOvBoGo1_U6Q2DD-1">
          <mxGeometry width="50" height="50" relative="1" as="geometry">
            <mxPoint x="549" y="105" as="sourcePoint" />
            <mxPoint x="763" y="460" as="targetPoint" />
          </mxGeometry>
        </mxCell>
        <mxCell id="3XImW0MFOwX3jlocCDl--53" value="" style="endArrow=none;html=1;entryX=0.5;entryY=0.5;entryDx=0;entryDy=0;entryPerimeter=0;exitX=1;exitY=0.5;exitDx=0;exitDy=0;" edge="1" parent="OkJ0kMNktQkxDc5KM9ti-1" source="OkJ0kMNktQkxDc5KM9ti-5" target="K0KZjNOvBoGo1_U6Q2DD-1">
          <mxGeometry width="50" height="50" relative="1" as="geometry">
            <mxPoint x="549" y="185" as="sourcePoint" />
            <mxPoint x="773" y="470" as="targetPoint" />
          </mxGeometry>
        </mxCell>
        <mxCell id="3XImW0MFOwX3jlocCDl--54" value="" style="endArrow=none;html=1;entryX=0.5;entryY=0.5;entryDx=0;entryDy=0;entryPerimeter=0;exitX=1;exitY=0.5;exitDx=0;exitDy=0;" edge="1" parent="OkJ0kMNktQkxDc5KM9ti-1" source="OkJ0kMNktQkxDc5KM9ti-7" target="K0KZjNOvBoGo1_U6Q2DD-1">
          <mxGeometry width="50" height="50" relative="1" as="geometry">
            <mxPoint x="549" y="225" as="sourcePoint" />
            <mxPoint x="783" y="480" as="targetPoint" />
          </mxGeometry>
        </mxCell>
        <mxCell id="3XImW0MFOwX3jlocCDl--55" value="" style="endArrow=none;html=1;entryX=0.5;entryY=0.5;entryDx=0;entryDy=0;entryPerimeter=0;exitX=1;exitY=0.5;exitDx=0;exitDy=0;" edge="1" parent="OkJ0kMNktQkxDc5KM9ti-1" source="OkJ0kMNktQkxDc5KM9ti-9" target="K0KZjNOvBoGo1_U6Q2DD-1">
          <mxGeometry width="50" height="50" relative="1" as="geometry">
            <mxPoint x="549" y="265" as="sourcePoint" />
            <mxPoint x="793" y="490" as="targetPoint" />
          </mxGeometry>
        </mxCell>
        <mxCell id="3XImW0MFOwX3jlocCDl--56" value="" style="endArrow=none;html=1;entryX=0.5;entryY=0.5;entryDx=0;entryDy=0;entryPerimeter=0;exitX=1;exitY=0.5;exitDx=0;exitDy=0;" edge="1" parent="OkJ0kMNktQkxDc5KM9ti-1" source="OkJ0kMNktQkxDc5KM9ti-10" target="K0KZjNOvBoGo1_U6Q2DD-1">
          <mxGeometry width="50" height="50" relative="1" as="geometry">
            <mxPoint x="553" y="345" as="sourcePoint" />
            <mxPoint x="803" y="500" as="targetPoint" />
          </mxGeometry>
        </mxCell>
        <mxCell id="3XImW0MFOwX3jlocCDl--57" value="" style="endArrow=none;html=1;entryX=0.5;entryY=0.5;entryDx=0;entryDy=0;entryPerimeter=0;exitX=1;exitY=0.5;exitDx=0;exitDy=0;" edge="1" parent="OkJ0kMNktQkxDc5KM9ti-1" source="OkJ0kMNktQkxDc5KM9ti-19" target="K0KZjNOvBoGo1_U6Q2DD-1">
          <mxGeometry width="50" height="50" relative="1" as="geometry">
            <mxPoint x="553" y="385" as="sourcePoint" />
            <mxPoint x="813" y="510" as="targetPoint" />
          </mxGeometry>
        </mxCell>
        <mxCell id="3XImW0MFOwX3jlocCDl--58" value="" style="endArrow=none;html=1;entryX=0.5;entryY=0.5;entryDx=0;entryDy=0;entryPerimeter=0;exitX=1;exitY=0.5;exitDx=0;exitDy=0;" edge="1" parent="OkJ0kMNktQkxDc5KM9ti-1" source="OkJ0kMNktQkxDc5KM9ti-20" target="K0KZjNOvBoGo1_U6Q2DD-1">
          <mxGeometry width="50" height="50" relative="1" as="geometry">
            <mxPoint x="553" y="785" as="sourcePoint" />
            <mxPoint x="823" y="520" as="targetPoint" />
          </mxGeometry>
        </mxCell>
        <mxCell id="3XImW0MFOwX3jlocCDl--59" value="" style="endArrow=none;html=1;entryX=0.5;entryY=0.5;entryDx=0;entryDy=0;entryPerimeter=0;exitX=1;exitY=0.5;exitDx=0;exitDy=0;" edge="1" parent="OkJ0kMNktQkxDc5KM9ti-1" source="OkJ0kMNktQkxDc5KM9ti-21" target="K0KZjNOvBoGo1_U6Q2DD-1">
          <mxGeometry width="50" height="50" relative="1" as="geometry">
            <mxPoint x="553" y="825" as="sourcePoint" />
            <mxPoint x="833" y="530" as="targetPoint" />
          </mxGeometry>
        </mxCell>
        <mxCell id="3XImW0MFOwX3jlocCDl--60" value="" style="endArrow=none;html=1;entryX=0.5;entryY=0.5;entryDx=0;entryDy=0;entryPerimeter=0;exitX=1;exitY=0.5;exitDx=0;exitDy=0;" edge="1" parent="OkJ0kMNktQkxDc5KM9ti-1" source="OkJ0kMNktQkxDc5KM9ti-23" target="K0KZjNOvBoGo1_U6Q2DD-1">
          <mxGeometry width="50" height="50" relative="1" as="geometry">
            <mxPoint x="553" y="865" as="sourcePoint" />
            <mxPoint x="843" y="540" as="targetPoint" />
          </mxGeometry>
        </mxCell>
      </root>
    </mxGraphModel>
  </diagram>
  <diagram id="4ahL79ucEZHrEtOadnH0" name="Page-6">
    <mxGraphModel dx="1221" dy="644" grid="1" gridSize="10" guides="1" tooltips="1" connect="1" arrows="1" fold="1" page="1" pageScale="1" pageWidth="827" pageHeight="1169" math="0" shadow="0">
      <root>
        <mxCell id="JYT1kf64-c7LaWkBKrBF-0" />
        <mxCell id="JYT1kf64-c7LaWkBKrBF-1" parent="JYT1kf64-c7LaWkBKrBF-0" />
        <mxCell id="U2eud3HDcuk1siDG4fnX-0" value="添加文章" style="ellipse;whiteSpace=wrap;html=1;" vertex="1" parent="JYT1kf64-c7LaWkBKrBF-1">
          <mxGeometry x="443" y="329" width="96" height="30" as="geometry" />
        </mxCell>
        <mxCell id="U2eud3HDcuk1siDG4fnX-1" value="删除文章" style="ellipse;whiteSpace=wrap;html=1;" vertex="1" parent="JYT1kf64-c7LaWkBKrBF-1">
          <mxGeometry x="443" y="369" width="96" height="30" as="geometry" />
        </mxCell>
        <mxCell id="U2eud3HDcuk1siDG4fnX-2" value="修改文章" style="ellipse;whiteSpace=wrap;html=1;" vertex="1" parent="JYT1kf64-c7LaWkBKrBF-1">
          <mxGeometry x="443" y="409" width="96" height="30" as="geometry" />
        </mxCell>
        <mxCell id="U2eud3HDcuk1siDG4fnX-3" value="文章搜索" style="ellipse;whiteSpace=wrap;html=1;" vertex="1" parent="JYT1kf64-c7LaWkBKrBF-1">
          <mxGeometry x="443" y="449" width="96" height="30" as="geometry" />
        </mxCell>
        <mxCell id="U2eud3HDcuk1siDG4fnX-4" value="删除评论" style="ellipse;whiteSpace=wrap;html=1;" vertex="1" parent="JYT1kf64-c7LaWkBKrBF-1">
          <mxGeometry x="443" y="649" width="100" height="30" as="geometry" />
        </mxCell>
        <mxCell id="U2eud3HDcuk1siDG4fnX-5" value="文章点赞" style="ellipse;whiteSpace=wrap;html=1;" vertex="1" parent="JYT1kf64-c7LaWkBKrBF-1">
          <mxGeometry x="443" y="489" width="96" height="30" as="geometry" />
        </mxCell>
        <mxCell id="U2eud3HDcuk1siDG4fnX-6" value="文章评论" style="ellipse;whiteSpace=wrap;html=1;" vertex="1" parent="JYT1kf64-c7LaWkBKrBF-1">
          <mxGeometry x="443" y="529" width="96" height="30" as="geometry" />
        </mxCell>
        <mxCell id="U2eud3HDcuk1siDG4fnX-7" value="添加评论" style="ellipse;whiteSpace=wrap;html=1;" vertex="1" parent="JYT1kf64-c7LaWkBKrBF-1">
          <mxGeometry x="443" y="569" width="100" height="30" as="geometry" />
        </mxCell>
        <mxCell id="U2eud3HDcuk1siDG4fnX-8" value="回复评论" style="ellipse;whiteSpace=wrap;html=1;" vertex="1" parent="JYT1kf64-c7LaWkBKrBF-1">
          <mxGeometry x="443" y="609" width="100" height="30" as="geometry" />
        </mxCell>
        <mxCell id="U2eud3HDcuk1siDG4fnX-9" value="统计浏览量" style="ellipse;whiteSpace=wrap;html=1;" vertex="1" parent="JYT1kf64-c7LaWkBKrBF-1">
          <mxGeometry x="443" y="769" width="100" height="30" as="geometry" />
        </mxCell>
        <mxCell id="U2eud3HDcuk1siDG4fnX-10" value="统计点赞数" style="ellipse;whiteSpace=wrap;html=1;" vertex="1" parent="JYT1kf64-c7LaWkBKrBF-1">
          <mxGeometry x="443" y="689" width="100" height="30" as="geometry" />
        </mxCell>
        <mxCell id="U2eud3HDcuk1siDG4fnX-11" value="统计评论量" style="ellipse;whiteSpace=wrap;html=1;" vertex="1" parent="JYT1kf64-c7LaWkBKrBF-1">
          <mxGeometry x="443" y="729" width="100" height="30" as="geometry" />
        </mxCell>
        <mxCell id="U2eud3HDcuk1siDG4fnX-12" value="统计热门文章" style="ellipse;whiteSpace=wrap;html=1;" vertex="1" parent="JYT1kf64-c7LaWkBKrBF-1">
          <mxGeometry x="443" y="809" width="100" height="30" as="geometry" />
        </mxCell>
        <mxCell id="U2eud3HDcuk1siDG4fnX-27" value="评论管理" style="ellipse;whiteSpace=wrap;html=1;" vertex="1" parent="JYT1kf64-c7LaWkBKrBF-1">
          <mxGeometry x="240" y="609" width="100" height="30" as="geometry" />
        </mxCell>
        <mxCell id="U2eud3HDcuk1siDG4fnX-28" value="文章管理" style="ellipse;whiteSpace=wrap;html=1;" vertex="1" parent="JYT1kf64-c7LaWkBKrBF-1">
          <mxGeometry x="240" y="419" width="100" height="30" as="geometry" />
        </mxCell>
        <mxCell id="U2eud3HDcuk1siDG4fnX-31" value="统计功能" style="ellipse;whiteSpace=wrap;html=1;" vertex="1" parent="JYT1kf64-c7LaWkBKrBF-1">
          <mxGeometry x="240" y="750" width="100" height="30" as="geometry" />
        </mxCell>
        <mxCell id="U2eud3HDcuk1siDG4fnX-32" value="用户" style="shape=umlActor;verticalLabelPosition=bottom;verticalAlign=top;html=1;" vertex="1" parent="JYT1kf64-c7LaWkBKrBF-1">
          <mxGeometry x="780" y="559" width="20" height="40" as="geometry" />
        </mxCell>
        <mxCell id="U2eud3HDcuk1siDG4fnX-33" value="管理员" style="shape=umlActor;verticalLabelPosition=bottom;verticalAlign=top;html=1;" vertex="1" parent="JYT1kf64-c7LaWkBKrBF-1">
          <mxGeometry x="780" y="659" width="20" height="40" as="geometry" />
        </mxCell>
        <mxCell id="U2eud3HDcuk1siDG4fnX-34" value="种草圈子" style="ellipse;whiteSpace=wrap;html=1;" vertex="1" parent="JYT1kf64-c7LaWkBKrBF-1">
          <mxGeometry x="40" y="609" width="100" height="30" as="geometry" />
        </mxCell>
        <mxCell id="U2eud3HDcuk1siDG4fnX-35" value="《包含》" style="endArrow=open;endSize=12;dashed=1;html=1;entryX=0;entryY=0.5;entryDx=0;entryDy=0;exitX=1;exitY=0.5;exitDx=0;exitDy=0;" edge="1" parent="JYT1kf64-c7LaWkBKrBF-1" source="U2eud3HDcuk1siDG4fnX-34" target="U2eud3HDcuk1siDG4fnX-28">
          <mxGeometry width="160" relative="1" as="geometry">
            <mxPoint x="163" y="560" as="sourcePoint" />
            <mxPoint x="283" y="210" as="targetPoint" />
          </mxGeometry>
        </mxCell>
        <mxCell id="U2eud3HDcuk1siDG4fnX-36" value="《包含》" style="endArrow=open;endSize=12;dashed=1;html=1;entryX=0;entryY=0.5;entryDx=0;entryDy=0;exitX=1;exitY=0.5;exitDx=0;exitDy=0;" edge="1" parent="JYT1kf64-c7LaWkBKrBF-1" source="U2eud3HDcuk1siDG4fnX-34" target="U2eud3HDcuk1siDG4fnX-27">
          <mxGeometry width="160" relative="1" as="geometry">
            <mxPoint x="163" y="544.9999999999999" as="sourcePoint" />
            <mxPoint x="273.0000000000001" y="155" as="targetPoint" />
          </mxGeometry>
        </mxCell>
        <mxCell id="U2eud3HDcuk1siDG4fnX-40" value="《包含》" style="endArrow=open;endSize=12;dashed=1;html=1;entryX=0;entryY=0.5;entryDx=0;entryDy=0;exitX=1;exitY=0.5;exitDx=0;exitDy=0;" edge="1" parent="JYT1kf64-c7LaWkBKrBF-1" source="U2eud3HDcuk1siDG4fnX-34" target="U2eud3HDcuk1siDG4fnX-31">
          <mxGeometry width="160" relative="1" as="geometry">
            <mxPoint x="163" y="545" as="sourcePoint" />
            <mxPoint x="273" y="875" as="targetPoint" />
          </mxGeometry>
        </mxCell>
        <mxCell id="U2eud3HDcuk1siDG4fnX-41" value="《包含》" style="endArrow=open;endSize=12;dashed=1;html=1;entryX=0;entryY=0.5;entryDx=0;entryDy=0;exitX=1;exitY=0.5;exitDx=0;exitDy=0;" edge="1" parent="JYT1kf64-c7LaWkBKrBF-1" source="U2eud3HDcuk1siDG4fnX-27" target="U2eud3HDcuk1siDG4fnX-4">
          <mxGeometry width="160" relative="1" as="geometry">
            <mxPoint x="363" y="495" as="sourcePoint" />
            <mxPoint x="273" y="155" as="targetPoint" />
          </mxGeometry>
        </mxCell>
        <mxCell id="U2eud3HDcuk1siDG4fnX-42" value="《包含》" style="endArrow=open;endSize=12;dashed=1;html=1;entryX=0;entryY=0.5;entryDx=0;entryDy=0;exitX=1;exitY=0.5;exitDx=0;exitDy=0;" edge="1" parent="JYT1kf64-c7LaWkBKrBF-1" source="U2eud3HDcuk1siDG4fnX-31" target="U2eud3HDcuk1siDG4fnX-10">
          <mxGeometry width="160" relative="1" as="geometry">
            <mxPoint x="363" y="495" as="sourcePoint" />
            <mxPoint x="453" y="425" as="targetPoint" />
          </mxGeometry>
        </mxCell>
        <mxCell id="U2eud3HDcuk1siDG4fnX-43" value="《包含》" style="endArrow=open;endSize=12;dashed=1;html=1;entryX=0;entryY=0.5;entryDx=0;entryDy=0;exitX=1;exitY=0.5;exitDx=0;exitDy=0;" edge="1" parent="JYT1kf64-c7LaWkBKrBF-1" source="U2eud3HDcuk1siDG4fnX-31" target="U2eud3HDcuk1siDG4fnX-11">
          <mxGeometry width="160" relative="1" as="geometry">
            <mxPoint x="363" y="495" as="sourcePoint" />
            <mxPoint x="453" y="465" as="targetPoint" />
          </mxGeometry>
        </mxCell>
        <mxCell id="U2eud3HDcuk1siDG4fnX-44" value="《包含》" style="endArrow=open;endSize=12;dashed=1;html=1;entryX=0;entryY=0.5;entryDx=0;entryDy=0;exitX=1;exitY=0.5;exitDx=0;exitDy=0;" edge="1" parent="JYT1kf64-c7LaWkBKrBF-1" source="U2eud3HDcuk1siDG4fnX-31" target="U2eud3HDcuk1siDG4fnX-9">
          <mxGeometry width="160" relative="1" as="geometry">
            <mxPoint x="363" y="495" as="sourcePoint" />
            <mxPoint x="453" y="505" as="targetPoint" />
          </mxGeometry>
        </mxCell>
        <mxCell id="U2eud3HDcuk1siDG4fnX-45" value="《包含》" style="endArrow=open;endSize=12;dashed=1;html=1;entryX=0;entryY=0.5;entryDx=0;entryDy=0;exitX=1;exitY=0.5;exitDx=0;exitDy=0;" edge="1" parent="JYT1kf64-c7LaWkBKrBF-1" source="U2eud3HDcuk1siDG4fnX-31" target="U2eud3HDcuk1siDG4fnX-12">
          <mxGeometry width="160" relative="1" as="geometry">
            <mxPoint x="363" y="655" as="sourcePoint" />
            <mxPoint x="453" y="545" as="targetPoint" />
          </mxGeometry>
        </mxCell>
        <mxCell id="U2eud3HDcuk1siDG4fnX-59" value="《包含》" style="endArrow=open;endSize=12;dashed=1;html=1;entryX=0;entryY=0.5;entryDx=0;entryDy=0;exitX=1;exitY=0.5;exitDx=0;exitDy=0;" edge="1" parent="JYT1kf64-c7LaWkBKrBF-1" source="U2eud3HDcuk1siDG4fnX-28" target="U2eud3HDcuk1siDG4fnX-6">
          <mxGeometry width="160" relative="1" as="geometry">
            <mxPoint x="343" y="390" as="sourcePoint" />
            <mxPoint x="423" y="310" as="targetPoint" />
          </mxGeometry>
        </mxCell>
        <mxCell id="U2eud3HDcuk1siDG4fnX-60" value="《包含》" style="endArrow=open;endSize=12;dashed=1;html=1;entryX=0;entryY=0.5;entryDx=0;entryDy=0;exitX=1;exitY=0.5;exitDx=0;exitDy=0;" edge="1" parent="JYT1kf64-c7LaWkBKrBF-1" source="U2eud3HDcuk1siDG4fnX-27" target="U2eud3HDcuk1siDG4fnX-7">
          <mxGeometry width="160" relative="1" as="geometry">
            <mxPoint x="373" y="325" as="sourcePoint" />
            <mxPoint x="453" y="305" as="targetPoint" />
          </mxGeometry>
        </mxCell>
        <mxCell id="U2eud3HDcuk1siDG4fnX-61" value="《包含》" style="endArrow=open;endSize=12;dashed=1;html=1;entryX=0;entryY=0.5;entryDx=0;entryDy=0;exitX=1;exitY=0.5;exitDx=0;exitDy=0;" edge="1" parent="JYT1kf64-c7LaWkBKrBF-1" source="U2eud3HDcuk1siDG4fnX-27" target="U2eud3HDcuk1siDG4fnX-8">
          <mxGeometry width="160" relative="1" as="geometry">
            <mxPoint x="373" y="325" as="sourcePoint" />
            <mxPoint x="453" y="345" as="targetPoint" />
          </mxGeometry>
        </mxCell>
        <mxCell id="U2eud3HDcuk1siDG4fnX-62" value="《包含》" style="endArrow=open;endSize=12;dashed=1;html=1;entryX=0;entryY=0.5;entryDx=0;entryDy=0;exitX=1;exitY=0.5;exitDx=0;exitDy=0;" edge="1" parent="JYT1kf64-c7LaWkBKrBF-1" source="U2eud3HDcuk1siDG4fnX-28" target="U2eud3HDcuk1siDG4fnX-5">
          <mxGeometry width="160" relative="1" as="geometry">
            <mxPoint x="373" y="325" as="sourcePoint" />
            <mxPoint x="453" y="305" as="targetPoint" />
          </mxGeometry>
        </mxCell>
        <mxCell id="U2eud3HDcuk1siDG4fnX-63" value="《包含》" style="endArrow=open;endSize=12;dashed=1;html=1;entryX=0;entryY=0.5;entryDx=0;entryDy=0;exitX=1;exitY=0.5;exitDx=0;exitDy=0;" edge="1" parent="JYT1kf64-c7LaWkBKrBF-1" source="U2eud3HDcuk1siDG4fnX-28" target="U2eud3HDcuk1siDG4fnX-3">
          <mxGeometry width="160" relative="1" as="geometry">
            <mxPoint x="373" y="325" as="sourcePoint" />
            <mxPoint x="453" y="265" as="targetPoint" />
          </mxGeometry>
        </mxCell>
        <mxCell id="U2eud3HDcuk1siDG4fnX-64" value="《包含》" style="endArrow=open;endSize=12;dashed=1;html=1;entryX=0;entryY=0.5;entryDx=0;entryDy=0;exitX=1;exitY=0.5;exitDx=0;exitDy=0;" edge="1" parent="JYT1kf64-c7LaWkBKrBF-1" source="U2eud3HDcuk1siDG4fnX-28" target="U2eud3HDcuk1siDG4fnX-2">
          <mxGeometry width="160" relative="1" as="geometry">
            <mxPoint x="373" y="155" as="sourcePoint" />
            <mxPoint x="453" y="225" as="targetPoint" />
          </mxGeometry>
        </mxCell>
        <mxCell id="U2eud3HDcuk1siDG4fnX-65" value="《包含》" style="endArrow=open;endSize=12;dashed=1;html=1;entryX=0;entryY=0.5;entryDx=0;entryDy=0;exitX=1;exitY=0.5;exitDx=0;exitDy=0;" edge="1" parent="JYT1kf64-c7LaWkBKrBF-1" source="U2eud3HDcuk1siDG4fnX-28" target="U2eud3HDcuk1siDG4fnX-0">
          <mxGeometry width="160" relative="1" as="geometry">
            <mxPoint x="373" y="155" as="sourcePoint" />
            <mxPoint x="453" y="185" as="targetPoint" />
          </mxGeometry>
        </mxCell>
        <mxCell id="U2eud3HDcuk1siDG4fnX-66" value="《包含》" style="endArrow=open;endSize=12;dashed=1;html=1;entryX=0;entryY=0.5;entryDx=0;entryDy=0;exitX=1;exitY=0.5;exitDx=0;exitDy=0;" edge="1" parent="JYT1kf64-c7LaWkBKrBF-1" source="U2eud3HDcuk1siDG4fnX-28" target="U2eud3HDcuk1siDG4fnX-1">
          <mxGeometry width="160" relative="1" as="geometry">
            <mxPoint x="373" y="155" as="sourcePoint" />
            <mxPoint x="453" y="105" as="targetPoint" />
          </mxGeometry>
        </mxCell>
        <mxCell id="U2eud3HDcuk1siDG4fnX-67" value="" style="endArrow=none;html=1;entryX=0.5;entryY=0.5;entryDx=0;entryDy=0;entryPerimeter=0;exitX=1;exitY=0.5;exitDx=0;exitDy=0;" edge="1" parent="JYT1kf64-c7LaWkBKrBF-1" source="U2eud3HDcuk1siDG4fnX-1" target="U2eud3HDcuk1siDG4fnX-32">
          <mxGeometry width="50" height="50" relative="1" as="geometry">
            <mxPoint x="533" y="340" as="sourcePoint" />
            <mxPoint x="583" y="290" as="targetPoint" />
          </mxGeometry>
        </mxCell>
        <mxCell id="U2eud3HDcuk1siDG4fnX-68" value="" style="endArrow=none;html=1;entryX=0.5;entryY=0.5;entryDx=0;entryDy=0;entryPerimeter=0;exitX=1;exitY=0.5;exitDx=0;exitDy=0;" edge="1" parent="JYT1kf64-c7LaWkBKrBF-1" source="U2eud3HDcuk1siDG4fnX-6" target="U2eud3HDcuk1siDG4fnX-32">
          <mxGeometry width="50" height="50" relative="1" as="geometry">
            <mxPoint x="549" y="145" as="sourcePoint" />
            <mxPoint x="763" y="350" as="targetPoint" />
          </mxGeometry>
        </mxCell>
        <mxCell id="U2eud3HDcuk1siDG4fnX-69" value="" style="endArrow=none;html=1;exitX=1;exitY=0.5;exitDx=0;exitDy=0;entryX=0.5;entryY=0.5;entryDx=0;entryDy=0;entryPerimeter=0;" edge="1" parent="JYT1kf64-c7LaWkBKrBF-1" source="U2eud3HDcuk1siDG4fnX-4" target="U2eud3HDcuk1siDG4fnX-32">
          <mxGeometry width="50" height="50" relative="1" as="geometry">
            <mxPoint x="549" y="305" as="sourcePoint" />
            <mxPoint x="753" y="380" as="targetPoint" />
          </mxGeometry>
        </mxCell>
        <mxCell id="U2eud3HDcuk1siDG4fnX-70" value="" style="endArrow=none;html=1;exitX=1;exitY=0.5;exitDx=0;exitDy=0;entryX=0.5;entryY=0.5;entryDx=0;entryDy=0;entryPerimeter=0;" edge="1" parent="JYT1kf64-c7LaWkBKrBF-1" source="U2eud3HDcuk1siDG4fnX-10" target="U2eud3HDcuk1siDG4fnX-33">
          <mxGeometry width="50" height="50" relative="1" as="geometry">
            <mxPoint x="553" y="425" as="sourcePoint" />
            <mxPoint x="763" y="350" as="targetPoint" />
          </mxGeometry>
        </mxCell>
        <mxCell id="U2eud3HDcuk1siDG4fnX-71" value="" style="endArrow=none;html=1;exitX=1;exitY=0.5;exitDx=0;exitDy=0;entryX=0.5;entryY=0.5;entryDx=0;entryDy=0;entryPerimeter=0;" edge="1" parent="JYT1kf64-c7LaWkBKrBF-1" source="U2eud3HDcuk1siDG4fnX-11" target="U2eud3HDcuk1siDG4fnX-33">
          <mxGeometry width="50" height="50" relative="1" as="geometry">
            <mxPoint x="553" y="465" as="sourcePoint" />
            <mxPoint x="763" y="350" as="targetPoint" />
          </mxGeometry>
        </mxCell>
        <mxCell id="U2eud3HDcuk1siDG4fnX-72" value="" style="endArrow=none;html=1;exitX=1;exitY=0.5;exitDx=0;exitDy=0;entryX=0.5;entryY=0.5;entryDx=0;entryDy=0;entryPerimeter=0;" edge="1" parent="JYT1kf64-c7LaWkBKrBF-1" source="U2eud3HDcuk1siDG4fnX-9" target="U2eud3HDcuk1siDG4fnX-33">
          <mxGeometry width="50" height="50" relative="1" as="geometry">
            <mxPoint x="553" y="504.9999999999999" as="sourcePoint" />
            <mxPoint x="763" y="349.9999999999999" as="targetPoint" />
          </mxGeometry>
        </mxCell>
        <mxCell id="U2eud3HDcuk1siDG4fnX-73" value="" style="endArrow=none;html=1;exitX=1;exitY=0.5;exitDx=0;exitDy=0;entryX=0.5;entryY=0.5;entryDx=0;entryDy=0;entryPerimeter=0;" edge="1" parent="JYT1kf64-c7LaWkBKrBF-1" source="U2eud3HDcuk1siDG4fnX-12" target="U2eud3HDcuk1siDG4fnX-33">
          <mxGeometry width="50" height="50" relative="1" as="geometry">
            <mxPoint x="553" y="544.9999999999999" as="sourcePoint" />
            <mxPoint x="763" y="349.9999999999999" as="targetPoint" />
          </mxGeometry>
        </mxCell>
        <mxCell id="U2eud3HDcuk1siDG4fnX-86" value="" style="endArrow=none;html=1;entryX=0.5;entryY=0.5;entryDx=0;entryDy=0;entryPerimeter=0;exitX=1;exitY=0.5;exitDx=0;exitDy=0;" edge="1" parent="JYT1kf64-c7LaWkBKrBF-1" source="U2eud3HDcuk1siDG4fnX-0" target="U2eud3HDcuk1siDG4fnX-32">
          <mxGeometry width="50" height="50" relative="1" as="geometry">
            <mxPoint x="549" y="145" as="sourcePoint" />
            <mxPoint x="763" y="360" as="targetPoint" />
          </mxGeometry>
        </mxCell>
        <mxCell id="U2eud3HDcuk1siDG4fnX-87" value="" style="endArrow=none;html=1;entryX=0.5;entryY=0.5;entryDx=0;entryDy=0;entryPerimeter=0;exitX=1;exitY=0.5;exitDx=0;exitDy=0;" edge="1" parent="JYT1kf64-c7LaWkBKrBF-1" source="U2eud3HDcuk1siDG4fnX-2" target="U2eud3HDcuk1siDG4fnX-32">
          <mxGeometry width="50" height="50" relative="1" as="geometry">
            <mxPoint x="549" y="105" as="sourcePoint" />
            <mxPoint x="763" y="460" as="targetPoint" />
          </mxGeometry>
        </mxCell>
        <mxCell id="U2eud3HDcuk1siDG4fnX-88" value="" style="endArrow=none;html=1;entryX=0.5;entryY=0.5;entryDx=0;entryDy=0;entryPerimeter=0;exitX=1;exitY=0.5;exitDx=0;exitDy=0;" edge="1" parent="JYT1kf64-c7LaWkBKrBF-1" source="U2eud3HDcuk1siDG4fnX-3" target="U2eud3HDcuk1siDG4fnX-32">
          <mxGeometry width="50" height="50" relative="1" as="geometry">
            <mxPoint x="549" y="185" as="sourcePoint" />
            <mxPoint x="773" y="470" as="targetPoint" />
          </mxGeometry>
        </mxCell>
        <mxCell id="U2eud3HDcuk1siDG4fnX-89" value="" style="endArrow=none;html=1;entryX=0.5;entryY=0.5;entryDx=0;entryDy=0;entryPerimeter=0;exitX=1;exitY=0.5;exitDx=0;exitDy=0;" edge="1" parent="JYT1kf64-c7LaWkBKrBF-1" source="U2eud3HDcuk1siDG4fnX-5" target="U2eud3HDcuk1siDG4fnX-32">
          <mxGeometry width="50" height="50" relative="1" as="geometry">
            <mxPoint x="549" y="225" as="sourcePoint" />
            <mxPoint x="783" y="480" as="targetPoint" />
          </mxGeometry>
        </mxCell>
        <mxCell id="U2eud3HDcuk1siDG4fnX-90" value="" style="endArrow=none;html=1;entryX=0.5;entryY=0.5;entryDx=0;entryDy=0;entryPerimeter=0;exitX=1;exitY=0.5;exitDx=0;exitDy=0;" edge="1" parent="JYT1kf64-c7LaWkBKrBF-1" source="U2eud3HDcuk1siDG4fnX-7" target="U2eud3HDcuk1siDG4fnX-32">
          <mxGeometry width="50" height="50" relative="1" as="geometry">
            <mxPoint x="549" y="265" as="sourcePoint" />
            <mxPoint x="793" y="490" as="targetPoint" />
          </mxGeometry>
        </mxCell>
        <mxCell id="U2eud3HDcuk1siDG4fnX-91" value="" style="endArrow=none;html=1;entryX=0.5;entryY=0.5;entryDx=0;entryDy=0;entryPerimeter=0;exitX=1;exitY=0.5;exitDx=0;exitDy=0;" edge="1" parent="JYT1kf64-c7LaWkBKrBF-1" source="U2eud3HDcuk1siDG4fnX-8" target="U2eud3HDcuk1siDG4fnX-32">
          <mxGeometry width="50" height="50" relative="1" as="geometry">
            <mxPoint x="553" y="345" as="sourcePoint" />
            <mxPoint x="803" y="500" as="targetPoint" />
          </mxGeometry>
        </mxCell>
        <mxCell id="U2eud3HDcuk1siDG4fnX-96" value="" style="endArrow=none;html=1;entryX=0.5;entryY=0.5;entryDx=0;entryDy=0;entryPerimeter=0;exitX=1;exitY=0.5;exitDx=0;exitDy=0;" edge="1" parent="JYT1kf64-c7LaWkBKrBF-1" source="U2eud3HDcuk1siDG4fnX-0" target="U2eud3HDcuk1siDG4fnX-33">
          <mxGeometry width="50" height="50" relative="1" as="geometry">
            <mxPoint x="548.9999999999964" y="105" as="sourcePoint" />
            <mxPoint x="794" y="520.0000000000001" as="targetPoint" />
          </mxGeometry>
        </mxCell>
        <mxCell id="U2eud3HDcuk1siDG4fnX-97" value="" style="endArrow=none;html=1;exitX=1;exitY=0.5;exitDx=0;exitDy=0;entryX=0.5;entryY=0.5;entryDx=0;entryDy=0;entryPerimeter=0;" edge="1" parent="JYT1kf64-c7LaWkBKrBF-1" source="U2eud3HDcuk1siDG4fnX-1" target="U2eud3HDcuk1siDG4fnX-33">
          <mxGeometry width="50" height="50" relative="1" as="geometry">
            <mxPoint x="548.9999999999964" y="105" as="sourcePoint" />
            <mxPoint x="780" y="610" as="targetPoint" />
          </mxGeometry>
        </mxCell>
        <mxCell id="U2eud3HDcuk1siDG4fnX-98" value="" style="endArrow=none;html=1;entryX=0.5;entryY=0.5;entryDx=0;entryDy=0;entryPerimeter=0;exitX=1;exitY=0.5;exitDx=0;exitDy=0;" edge="1" parent="JYT1kf64-c7LaWkBKrBF-1" source="U2eud3HDcuk1siDG4fnX-2" target="U2eud3HDcuk1siDG4fnX-33">
          <mxGeometry width="50" height="50" relative="1" as="geometry">
            <mxPoint x="549" y="185" as="sourcePoint" />
            <mxPoint x="794" y="520" as="targetPoint" />
          </mxGeometry>
        </mxCell>
        <mxCell id="U2eud3HDcuk1siDG4fnX-99" value="" style="endArrow=none;html=1;entryX=0.5;entryY=0.5;entryDx=0;entryDy=0;entryPerimeter=0;exitX=1;exitY=0.5;exitDx=0;exitDy=0;" edge="1" parent="JYT1kf64-c7LaWkBKrBF-1" source="U2eud3HDcuk1siDG4fnX-3" target="U2eud3HDcuk1siDG4fnX-33">
          <mxGeometry width="50" height="50" relative="1" as="geometry">
            <mxPoint x="549" y="185" as="sourcePoint" />
            <mxPoint x="804" y="530" as="targetPoint" />
          </mxGeometry>
        </mxCell>
        <mxCell id="U2eud3HDcuk1siDG4fnX-100" value="" style="endArrow=none;html=1;entryX=0.5;entryY=0.5;entryDx=0;entryDy=0;entryPerimeter=0;exitX=1;exitY=0.5;exitDx=0;exitDy=0;" edge="1" parent="JYT1kf64-c7LaWkBKrBF-1" source="U2eud3HDcuk1siDG4fnX-5" target="U2eud3HDcuk1siDG4fnX-33">
          <mxGeometry width="50" height="50" relative="1" as="geometry">
            <mxPoint x="549" y="265" as="sourcePoint" />
            <mxPoint x="794" y="520" as="targetPoint" />
          </mxGeometry>
        </mxCell>
        <mxCell id="U2eud3HDcuk1siDG4fnX-101" value="" style="endArrow=none;html=1;entryX=0.5;entryY=0.5;entryDx=0;entryDy=0;entryPerimeter=0;exitX=1;exitY=0.5;exitDx=0;exitDy=0;" edge="1" parent="JYT1kf64-c7LaWkBKrBF-1" source="U2eud3HDcuk1siDG4fnX-6" target="U2eud3HDcuk1siDG4fnX-33">
          <mxGeometry width="50" height="50" relative="1" as="geometry">
            <mxPoint x="549" y="265" as="sourcePoint" />
            <mxPoint x="794" y="620" as="targetPoint" />
          </mxGeometry>
        </mxCell>
        <mxCell id="U2eud3HDcuk1siDG4fnX-102" value="" style="endArrow=none;html=1;entryX=0.5;entryY=0.5;entryDx=0;entryDy=0;entryPerimeter=0;exitX=1;exitY=0.5;exitDx=0;exitDy=0;" edge="1" parent="JYT1kf64-c7LaWkBKrBF-1" source="U2eud3HDcuk1siDG4fnX-7" target="U2eud3HDcuk1siDG4fnX-33">
          <mxGeometry width="50" height="50" relative="1" as="geometry">
            <mxPoint x="553" y="345" as="sourcePoint" />
            <mxPoint x="794" y="520" as="targetPoint" />
          </mxGeometry>
        </mxCell>
        <mxCell id="U2eud3HDcuk1siDG4fnX-103" value="" style="endArrow=none;html=1;entryX=0.5;entryY=0.5;entryDx=0;entryDy=0;entryPerimeter=0;exitX=1;exitY=0.5;exitDx=0;exitDy=0;" edge="1" parent="JYT1kf64-c7LaWkBKrBF-1" source="U2eud3HDcuk1siDG4fnX-8" target="U2eud3HDcuk1siDG4fnX-33">
          <mxGeometry width="50" height="50" relative="1" as="geometry">
            <mxPoint x="553" y="345" as="sourcePoint" />
            <mxPoint x="794" y="620" as="targetPoint" />
          </mxGeometry>
        </mxCell>
        <mxCell id="U2eud3HDcuk1siDG4fnX-104" value="" style="endArrow=none;html=1;entryX=0.5;entryY=0.5;entryDx=0;entryDy=0;entryPerimeter=0;exitX=1;exitY=0.5;exitDx=0;exitDy=0;" edge="1" parent="JYT1kf64-c7LaWkBKrBF-1" source="U2eud3HDcuk1siDG4fnX-4" target="U2eud3HDcuk1siDG4fnX-33">
          <mxGeometry width="50" height="50" relative="1" as="geometry">
            <mxPoint x="553" y="385" as="sourcePoint" />
            <mxPoint x="794" y="620" as="targetPoint" />
          </mxGeometry>
        </mxCell>
        <mxCell id="U2eud3HDcuk1siDG4fnX-107" value="话题管理" style="ellipse;whiteSpace=wrap;html=1;" vertex="1" parent="JYT1kf64-c7LaWkBKrBF-1">
          <mxGeometry x="250" y="920" width="100" height="30" as="geometry" />
        </mxCell>
        <mxCell id="U2eud3HDcuk1siDG4fnX-110" value="修改话题" style="ellipse;whiteSpace=wrap;html=1;" vertex="1" parent="JYT1kf64-c7LaWkBKrBF-1">
          <mxGeometry x="439" y="890" width="100" height="30" as="geometry" />
        </mxCell>
        <mxCell id="U2eud3HDcuk1siDG4fnX-111" value="添加话题" style="ellipse;whiteSpace=wrap;html=1;" vertex="1" parent="JYT1kf64-c7LaWkBKrBF-1">
          <mxGeometry x="441" y="850" width="100" height="30" as="geometry" />
        </mxCell>
        <mxCell id="U2eud3HDcuk1siDG4fnX-112" value="删除话题" style="ellipse;whiteSpace=wrap;html=1;" vertex="1" parent="JYT1kf64-c7LaWkBKrBF-1">
          <mxGeometry x="439" y="930" width="100" height="30" as="geometry" />
        </mxCell>
        <mxCell id="U2eud3HDcuk1siDG4fnX-113" value="查询话题" style="ellipse;whiteSpace=wrap;html=1;" vertex="1" parent="JYT1kf64-c7LaWkBKrBF-1">
          <mxGeometry x="439" y="970" width="100" height="30" as="geometry" />
        </mxCell>
        <mxCell id="U2eud3HDcuk1siDG4fnX-114" value="《包含》" style="endArrow=open;endSize=12;dashed=1;html=1;entryX=0;entryY=0.5;entryDx=0;entryDy=0;exitX=1;exitY=0.5;exitDx=0;exitDy=0;" edge="1" parent="JYT1kf64-c7LaWkBKrBF-1" source="U2eud3HDcuk1siDG4fnX-107" target="U2eud3HDcuk1siDG4fnX-111">
          <mxGeometry width="160" relative="1" as="geometry">
            <mxPoint x="350" y="754" as="sourcePoint" />
            <mxPoint x="453" y="834" as="targetPoint" />
          </mxGeometry>
        </mxCell>
        <mxCell id="U2eud3HDcuk1siDG4fnX-115" value="《包含》" style="endArrow=open;endSize=12;dashed=1;html=1;entryX=0;entryY=0.5;entryDx=0;entryDy=0;exitX=1;exitY=0.5;exitDx=0;exitDy=0;" edge="1" parent="JYT1kf64-c7LaWkBKrBF-1" source="U2eud3HDcuk1siDG4fnX-107" target="U2eud3HDcuk1siDG4fnX-110">
          <mxGeometry width="160" relative="1" as="geometry">
            <mxPoint x="350" y="895" as="sourcePoint" />
            <mxPoint x="450.9999999999975" y="875" as="targetPoint" />
          </mxGeometry>
        </mxCell>
        <mxCell id="U2eud3HDcuk1siDG4fnX-116" value="《包含》" style="endArrow=open;endSize=12;dashed=1;html=1;entryX=0;entryY=0.5;entryDx=0;entryDy=0;exitX=1;exitY=0.5;exitDx=0;exitDy=0;" edge="1" parent="JYT1kf64-c7LaWkBKrBF-1" source="U2eud3HDcuk1siDG4fnX-107" target="U2eud3HDcuk1siDG4fnX-112">
          <mxGeometry width="160" relative="1" as="geometry">
            <mxPoint x="350" y="895" as="sourcePoint" />
            <mxPoint x="449" y="915" as="targetPoint" />
          </mxGeometry>
        </mxCell>
        <mxCell id="U2eud3HDcuk1siDG4fnX-117" value="《包含》" style="endArrow=open;endSize=12;dashed=1;html=1;entryX=0;entryY=0.5;entryDx=0;entryDy=0;exitX=1;exitY=0.5;exitDx=0;exitDy=0;" edge="1" parent="JYT1kf64-c7LaWkBKrBF-1" source="U2eud3HDcuk1siDG4fnX-107" target="U2eud3HDcuk1siDG4fnX-113">
          <mxGeometry width="160" relative="1" as="geometry">
            <mxPoint x="350" y="895" as="sourcePoint" />
            <mxPoint x="449" y="955" as="targetPoint" />
          </mxGeometry>
        </mxCell>
        <mxCell id="U2eud3HDcuk1siDG4fnX-118" value="" style="endArrow=none;html=1;exitX=1;exitY=0.5;exitDx=0;exitDy=0;entryX=0.5;entryY=0.5;entryDx=0;entryDy=0;entryPerimeter=0;" edge="1" parent="JYT1kf64-c7LaWkBKrBF-1" source="U2eud3HDcuk1siDG4fnX-111" target="U2eud3HDcuk1siDG4fnX-32">
          <mxGeometry width="50" height="50" relative="1" as="geometry">
            <mxPoint x="553" y="834" as="sourcePoint" />
            <mxPoint x="794" y="619.9999999999999" as="targetPoint" />
          </mxGeometry>
        </mxCell>
        <mxCell id="U2eud3HDcuk1siDG4fnX-119" value="" style="endArrow=none;html=1;exitX=1;exitY=0.5;exitDx=0;exitDy=0;entryX=0.5;entryY=0.5;entryDx=0;entryDy=0;entryPerimeter=0;" edge="1" parent="JYT1kf64-c7LaWkBKrBF-1" source="U2eud3HDcuk1siDG4fnX-110" target="U2eud3HDcuk1siDG4fnX-33">
          <mxGeometry width="50" height="50" relative="1" as="geometry">
            <mxPoint x="551.0000000000025" y="875" as="sourcePoint" />
            <mxPoint x="804" y="629.9999999999999" as="targetPoint" />
          </mxGeometry>
        </mxCell>
        <mxCell id="U2eud3HDcuk1siDG4fnX-120" value="" style="endArrow=none;html=1;entryX=0.5;entryY=0.5;entryDx=0;entryDy=0;entryPerimeter=0;exitX=1;exitY=0.5;exitDx=0;exitDy=0;" edge="1" parent="JYT1kf64-c7LaWkBKrBF-1" source="U2eud3HDcuk1siDG4fnX-111" target="U2eud3HDcuk1siDG4fnX-33">
          <mxGeometry width="50" height="50" relative="1" as="geometry">
            <mxPoint x="549" y="860" as="sourcePoint" />
            <mxPoint x="814" y="639.9999999999999" as="targetPoint" />
          </mxGeometry>
        </mxCell>
        <mxCell id="U2eud3HDcuk1siDG4fnX-121" value="" style="endArrow=none;html=1;entryX=0.5;entryY=0.5;entryDx=0;entryDy=0;entryPerimeter=0;exitX=1;exitY=0.5;exitDx=0;exitDy=0;" edge="1" parent="JYT1kf64-c7LaWkBKrBF-1" source="U2eud3HDcuk1siDG4fnX-110" target="U2eud3HDcuk1siDG4fnX-32">
          <mxGeometry width="50" height="50" relative="1" as="geometry">
            <mxPoint x="551.0000000000025" y="875" as="sourcePoint" />
            <mxPoint x="824" y="649.9999999999999" as="targetPoint" />
          </mxGeometry>
        </mxCell>
        <mxCell id="U2eud3HDcuk1siDG4fnX-122" value="" style="endArrow=none;html=1;entryX=0.5;entryY=0.5;entryDx=0;entryDy=0;entryPerimeter=0;exitX=1;exitY=0.5;exitDx=0;exitDy=0;" edge="1" parent="JYT1kf64-c7LaWkBKrBF-1" source="U2eud3HDcuk1siDG4fnX-112" target="U2eud3HDcuk1siDG4fnX-33">
          <mxGeometry width="50" height="50" relative="1" as="geometry">
            <mxPoint x="549" y="915" as="sourcePoint" />
            <mxPoint x="834" y="660" as="targetPoint" />
          </mxGeometry>
        </mxCell>
        <mxCell id="U2eud3HDcuk1siDG4fnX-123" value="" style="endArrow=none;html=1;entryX=0.5;entryY=0.5;entryDx=0;entryDy=0;entryPerimeter=0;exitX=1;exitY=0.5;exitDx=0;exitDy=0;" edge="1" parent="JYT1kf64-c7LaWkBKrBF-1" source="U2eud3HDcuk1siDG4fnX-113" target="U2eud3HDcuk1siDG4fnX-32">
          <mxGeometry width="50" height="50" relative="1" as="geometry">
            <mxPoint x="549" y="955" as="sourcePoint" />
            <mxPoint x="844" y="670" as="targetPoint" />
          </mxGeometry>
        </mxCell>
        <mxCell id="U2eud3HDcuk1siDG4fnX-124" value="" style="endArrow=none;html=1;entryX=0.5;entryY=0.5;entryDx=0;entryDy=0;entryPerimeter=0;exitX=1;exitY=0.5;exitDx=0;exitDy=0;" edge="1" parent="JYT1kf64-c7LaWkBKrBF-1" source="U2eud3HDcuk1siDG4fnX-112" target="U2eud3HDcuk1siDG4fnX-32">
          <mxGeometry width="50" height="50" relative="1" as="geometry">
            <mxPoint x="540" y="950" as="sourcePoint" />
            <mxPoint x="854" y="680" as="targetPoint" />
          </mxGeometry>
        </mxCell>
        <mxCell id="U2eud3HDcuk1siDG4fnX-125" value="" style="endArrow=none;html=1;entryX=0.5;entryY=0.5;entryDx=0;entryDy=0;entryPerimeter=0;exitX=1;exitY=0.5;exitDx=0;exitDy=0;" edge="1" parent="JYT1kf64-c7LaWkBKrBF-1" source="U2eud3HDcuk1siDG4fnX-113" target="U2eud3HDcuk1siDG4fnX-33">
          <mxGeometry width="50" height="50" relative="1" as="geometry">
            <mxPoint x="549" y="955" as="sourcePoint" />
            <mxPoint x="864" y="690" as="targetPoint" />
          </mxGeometry>
        </mxCell>
        <mxCell id="U2eud3HDcuk1siDG4fnX-126" value="《包含》" style="endArrow=open;endSize=12;dashed=1;html=1;entryX=0;entryY=0.5;entryDx=0;entryDy=0;exitX=1;exitY=0.5;exitDx=0;exitDy=0;" edge="1" parent="JYT1kf64-c7LaWkBKrBF-1" source="U2eud3HDcuk1siDG4fnX-34" target="U2eud3HDcuk1siDG4fnX-107">
          <mxGeometry width="160" relative="1" as="geometry">
            <mxPoint x="144" y="595" as="sourcePoint" />
            <mxPoint x="250" y="754" as="targetPoint" />
          </mxGeometry>
        </mxCell>
        <mxCell id="U2eud3HDcuk1siDG4fnX-127" value="" style="endArrow=none;html=1;exitX=1;exitY=0.5;exitDx=0;exitDy=0;entryX=0.5;entryY=0.5;entryDx=0;entryDy=0;entryPerimeter=0;" edge="1" parent="JYT1kf64-c7LaWkBKrBF-1" source="U2eud3HDcuk1siDG4fnX-10" target="U2eud3HDcuk1siDG4fnX-32">
          <mxGeometry width="50" height="50" relative="1" as="geometry">
            <mxPoint x="553" y="714" as="sourcePoint" />
            <mxPoint x="800" y="689" as="targetPoint" />
          </mxGeometry>
        </mxCell>
        <mxCell id="U2eud3HDcuk1siDG4fnX-128" value="" style="endArrow=none;html=1;exitX=1;exitY=0.5;exitDx=0;exitDy=0;entryX=0.5;entryY=0.5;entryDx=0;entryDy=0;entryPerimeter=0;" edge="1" parent="JYT1kf64-c7LaWkBKrBF-1" source="U2eud3HDcuk1siDG4fnX-11" target="U2eud3HDcuk1siDG4fnX-32">
          <mxGeometry width="50" height="50" relative="1" as="geometry">
            <mxPoint x="553" y="714" as="sourcePoint" />
            <mxPoint x="800" y="589" as="targetPoint" />
          </mxGeometry>
        </mxCell>
        <mxCell id="U2eud3HDcuk1siDG4fnX-129" value="" style="endArrow=none;html=1;exitX=1;exitY=0.5;exitDx=0;exitDy=0;entryX=0.5;entryY=0.5;entryDx=0;entryDy=0;entryPerimeter=0;" edge="1" parent="JYT1kf64-c7LaWkBKrBF-1" source="U2eud3HDcuk1siDG4fnX-9" target="U2eud3HDcuk1siDG4fnX-32">
          <mxGeometry width="50" height="50" relative="1" as="geometry">
            <mxPoint x="553" y="754" as="sourcePoint" />
            <mxPoint x="800" y="589" as="targetPoint" />
          </mxGeometry>
        </mxCell>
        <mxCell id="U2eud3HDcuk1siDG4fnX-130" value="" style="endArrow=none;html=1;exitX=1;exitY=0.5;exitDx=0;exitDy=0;entryX=0.5;entryY=0.5;entryDx=0;entryDy=0;entryPerimeter=0;" edge="1" parent="JYT1kf64-c7LaWkBKrBF-1" source="U2eud3HDcuk1siDG4fnX-12" target="U2eud3HDcuk1siDG4fnX-32">
          <mxGeometry width="50" height="50" relative="1" as="geometry">
            <mxPoint x="553" y="794" as="sourcePoint" />
            <mxPoint x="800" y="589" as="targetPoint" />
          </mxGeometry>
        </mxCell>
      </root>
    </mxGraphModel>
  </diagram>
</mxfile>
